G04 #@! TF.GenerationSoftware,KiCad,Pcbnew,(5.1.9)-1*
G04 #@! TF.CreationDate,2021-05-12T21:32:52+02:00*
G04 #@! TF.ProjectId,GPSMux,4750534d-7578-42e6-9b69-6361645f7063,01*
G04 #@! TF.SameCoordinates,Original*
G04 #@! TF.FileFunction,Copper,L1,Top*
G04 #@! TF.FilePolarity,Positive*
%FSLAX46Y46*%
G04 Gerber Fmt 4.6, Leading zero omitted, Abs format (unit mm)*
G04 Created by KiCad (PCBNEW (5.1.9)-1) date 2021-05-12 21:32:52*
%MOMM*%
%LPD*%
G01*
G04 APERTURE LIST*
G04 #@! TA.AperFunction,NonConductor*
%ADD10C,0.150000*%
G04 #@! TD*
G04 #@! TA.AperFunction,ComponentPad*
%ADD11C,3.800000*%
G04 #@! TD*
G04 #@! TA.AperFunction,SMDPad,CuDef*
%ADD12R,0.800000X0.750000*%
G04 #@! TD*
G04 #@! TA.AperFunction,ComponentPad*
%ADD13O,1.600000X1.600000*%
G04 #@! TD*
G04 #@! TA.AperFunction,ComponentPad*
%ADD14R,1.600000X1.600000*%
G04 #@! TD*
G04 #@! TA.AperFunction,SMDPad,CuDef*
%ADD15R,0.900000X1.200000*%
G04 #@! TD*
G04 #@! TA.AperFunction,ConnectorPad*
%ADD16R,0.800000X1.600000*%
G04 #@! TD*
G04 #@! TA.AperFunction,ViaPad*
%ADD17C,0.800000*%
G04 #@! TD*
G04 #@! TA.AperFunction,Conductor*
%ADD18C,0.250000*%
G04 #@! TD*
G04 #@! TA.AperFunction,Conductor*
%ADD19C,0.254000*%
G04 #@! TD*
G04 #@! TA.AperFunction,Conductor*
%ADD20C,0.100000*%
G04 #@! TD*
G04 APERTURE END LIST*
D10*
X124485714Y-45452380D02*
X123914285Y-45452380D01*
X124200000Y-45452380D02*
X124200000Y-44452380D01*
X124104761Y-44595238D01*
X124009523Y-44690476D01*
X123914285Y-44738095D01*
D11*
X125000000Y-42000000D03*
X141000000Y-42000000D03*
X141000000Y-64000000D03*
X125000000Y-64000000D03*
D12*
X139580000Y-46500000D03*
X138080000Y-46500000D03*
D13*
X138080000Y-49190000D03*
X127920000Y-56810000D03*
X138080000Y-51730000D03*
X127920000Y-54270000D03*
X138080000Y-54270000D03*
X127920000Y-51730000D03*
X138080000Y-56810000D03*
D14*
X127920000Y-49190000D03*
D15*
X125000000Y-49530000D03*
X125000000Y-51730000D03*
G04 #@! TA.AperFunction,ConnectorPad*
G36*
G01*
X131525000Y-60500000D02*
X131525000Y-61700000D01*
G75*
G02*
X131325000Y-61900000I-200000J0D01*
G01*
X130925000Y-61900000D01*
G75*
G02*
X130725000Y-61700000I0J200000D01*
G01*
X130725000Y-60500000D01*
G75*
G02*
X130925000Y-60300000I200000J0D01*
G01*
X131325000Y-60300000D01*
G75*
G02*
X131525000Y-60500000I0J-200000D01*
G01*
G37*
G04 #@! TD.AperFunction*
D16*
X132375000Y-61100000D03*
X134875000Y-61100000D03*
X133625000Y-61100000D03*
G04 #@! TA.AperFunction,ConnectorPad*
G36*
G01*
X129625000Y-63025000D02*
X129625000Y-64975000D01*
G75*
G02*
X129100000Y-65500000I-525000J0D01*
G01*
X128050000Y-65500000D01*
G75*
G02*
X127525000Y-64975000I0J525000D01*
G01*
X127525000Y-63025000D01*
G75*
G02*
X128050000Y-62500000I525000J0D01*
G01*
X129100000Y-62500000D01*
G75*
G02*
X129625000Y-63025000I0J-525000D01*
G01*
G37*
G04 #@! TD.AperFunction*
G04 #@! TA.AperFunction,ConnectorPad*
G36*
G01*
X138475000Y-63025000D02*
X138475000Y-64975000D01*
G75*
G02*
X137950000Y-65500000I-525000J0D01*
G01*
X136900000Y-65500000D01*
G75*
G02*
X136375000Y-64975000I0J525000D01*
G01*
X136375000Y-63025000D01*
G75*
G02*
X136900000Y-62500000I525000J0D01*
G01*
X137950000Y-62500000D01*
G75*
G02*
X138475000Y-63025000I0J-525000D01*
G01*
G37*
G04 #@! TD.AperFunction*
G04 #@! TA.AperFunction,ConnectorPad*
G36*
G01*
X134475000Y-45500000D02*
X134475000Y-44300000D01*
G75*
G02*
X134675000Y-44100000I200000J0D01*
G01*
X135075000Y-44100000D01*
G75*
G02*
X135275000Y-44300000I0J-200000D01*
G01*
X135275000Y-45500000D01*
G75*
G02*
X135075000Y-45700000I-200000J0D01*
G01*
X134675000Y-45700000D01*
G75*
G02*
X134475000Y-45500000I0J200000D01*
G01*
G37*
G04 #@! TD.AperFunction*
X133625000Y-44900000D03*
X131125000Y-44900000D03*
X132375000Y-44900000D03*
G04 #@! TA.AperFunction,ConnectorPad*
G36*
G01*
X136375000Y-42975000D02*
X136375000Y-41025000D01*
G75*
G02*
X136900000Y-40500000I525000J0D01*
G01*
X137950000Y-40500000D01*
G75*
G02*
X138475000Y-41025000I0J-525000D01*
G01*
X138475000Y-42975000D01*
G75*
G02*
X137950000Y-43500000I-525000J0D01*
G01*
X136900000Y-43500000D01*
G75*
G02*
X136375000Y-42975000I0J525000D01*
G01*
G37*
G04 #@! TD.AperFunction*
G04 #@! TA.AperFunction,ConnectorPad*
G36*
G01*
X127525000Y-42975000D02*
X127525000Y-41025000D01*
G75*
G02*
X128050000Y-40500000I525000J0D01*
G01*
X129100000Y-40500000D01*
G75*
G02*
X129625000Y-41025000I0J-525000D01*
G01*
X129625000Y-42975000D01*
G75*
G02*
X129100000Y-43500000I-525000J0D01*
G01*
X128050000Y-43500000D01*
G75*
G02*
X127525000Y-42975000I0J525000D01*
G01*
G37*
G04 #@! TD.AperFunction*
D17*
X140500000Y-46500000D03*
X130985516Y-59823381D03*
X135875002Y-45700000D03*
X135750000Y-58000000D03*
X125000000Y-53500000D03*
X133625000Y-42325000D03*
X125000000Y-48000056D03*
X132375000Y-43499998D03*
D18*
X139750000Y-46500000D02*
X140500000Y-46500000D01*
X131125000Y-59962865D02*
X130985516Y-59823381D01*
X131125000Y-61100000D02*
X131125000Y-59962865D01*
X135675000Y-45700000D02*
X134875000Y-44900000D01*
X135875002Y-45700000D02*
X135675000Y-45700000D01*
X138080000Y-48058630D02*
X138080000Y-46500000D01*
X138080000Y-49190000D02*
X138080000Y-48058630D01*
X125000000Y-49400000D02*
X125000000Y-48000056D01*
X127920000Y-51730000D02*
X126230000Y-51730000D01*
X126230000Y-51730000D02*
X125000000Y-51730000D01*
X132375000Y-60050000D02*
X132375000Y-61100000D01*
X132375000Y-57593630D02*
X132375000Y-60050000D01*
X129051370Y-54270000D02*
X132375000Y-57593630D01*
X127920000Y-54270000D02*
X129051370Y-54270000D01*
X133625000Y-61100000D02*
X133625000Y-58575000D01*
X135390000Y-56810000D02*
X138080000Y-56810000D01*
X133625000Y-58575000D02*
X135390000Y-56810000D01*
X132375000Y-45950000D02*
X132375000Y-44900000D01*
X132000000Y-46325000D02*
X132375000Y-45950000D01*
X129100000Y-46325000D02*
X132000000Y-46325000D01*
X127920000Y-49190000D02*
X127920000Y-47505000D01*
X127920000Y-47505000D02*
X129100000Y-46325000D01*
X132375000Y-43499998D02*
X133449998Y-43499998D01*
X133625000Y-43675000D02*
X133625000Y-44900000D01*
X133449998Y-43499998D02*
X133625000Y-43675000D01*
D19*
X136145156Y-40520629D02*
X136061262Y-40677584D01*
X136009601Y-40847889D01*
X135992157Y-41025000D01*
X135992157Y-42975000D01*
X136009601Y-43152111D01*
X136061262Y-43322416D01*
X136145156Y-43479371D01*
X136258058Y-43616942D01*
X136395629Y-43729844D01*
X136552584Y-43813738D01*
X136722889Y-43865399D01*
X136900000Y-43882843D01*
X137950000Y-43882843D01*
X138127111Y-43865399D01*
X138297416Y-43813738D01*
X138454371Y-43729844D01*
X138591942Y-43616942D01*
X138704844Y-43479371D01*
X138788738Y-43322416D01*
X138840399Y-43152111D01*
X138857843Y-42975000D01*
X138857843Y-42788917D01*
X138978604Y-43080459D01*
X139228231Y-43454053D01*
X139545947Y-43771769D01*
X139919541Y-44021396D01*
X140334657Y-44193343D01*
X140775341Y-44281000D01*
X141224659Y-44281000D01*
X141665343Y-44193343D01*
X142080459Y-44021396D01*
X142454053Y-43771769D01*
X142594000Y-43631822D01*
X142594001Y-62368179D01*
X142454053Y-62228231D01*
X142080459Y-61978604D01*
X141665343Y-61806657D01*
X141224659Y-61719000D01*
X140775341Y-61719000D01*
X140334657Y-61806657D01*
X139919541Y-61978604D01*
X139545947Y-62228231D01*
X139228231Y-62545947D01*
X138978604Y-62919541D01*
X138857843Y-63211083D01*
X138857843Y-63025000D01*
X138840399Y-62847889D01*
X138788738Y-62677584D01*
X138704844Y-62520629D01*
X138591942Y-62383058D01*
X138454371Y-62270156D01*
X138297416Y-62186262D01*
X138127111Y-62134601D01*
X137950000Y-62117157D01*
X136900000Y-62117157D01*
X136722889Y-62134601D01*
X136552584Y-62186262D01*
X136395629Y-62270156D01*
X136258058Y-62383058D01*
X136145156Y-62520629D01*
X136061262Y-62677584D01*
X136009601Y-62847889D01*
X135992157Y-63025000D01*
X135992157Y-64975000D01*
X136009601Y-65152111D01*
X136061262Y-65322416D01*
X136145156Y-65479371D01*
X136239230Y-65594000D01*
X129760770Y-65594000D01*
X129854844Y-65479371D01*
X129938738Y-65322416D01*
X129990399Y-65152111D01*
X130007843Y-64975000D01*
X130007843Y-63025000D01*
X129990399Y-62847889D01*
X129938738Y-62677584D01*
X129854844Y-62520629D01*
X129741942Y-62383058D01*
X129604371Y-62270156D01*
X129447416Y-62186262D01*
X129277111Y-62134601D01*
X129100000Y-62117157D01*
X128050000Y-62117157D01*
X127872889Y-62134601D01*
X127702584Y-62186262D01*
X127545629Y-62270156D01*
X127408058Y-62383058D01*
X127295156Y-62520629D01*
X127211262Y-62677584D01*
X127159601Y-62847889D01*
X127142157Y-63025000D01*
X127142157Y-63211083D01*
X127021396Y-62919541D01*
X126771769Y-62545947D01*
X126454053Y-62228231D01*
X126080459Y-61978604D01*
X125665343Y-61806657D01*
X125224659Y-61719000D01*
X124775341Y-61719000D01*
X124334657Y-61806657D01*
X123919541Y-61978604D01*
X123545947Y-62228231D01*
X123406000Y-62368178D01*
X123406000Y-56693682D01*
X126739000Y-56693682D01*
X126739000Y-56926318D01*
X126784386Y-57154485D01*
X126873412Y-57369413D01*
X127002658Y-57562843D01*
X127167157Y-57727342D01*
X127360587Y-57856588D01*
X127575515Y-57945614D01*
X127803682Y-57991000D01*
X128036318Y-57991000D01*
X128264485Y-57945614D01*
X128479413Y-57856588D01*
X128672843Y-57727342D01*
X128837342Y-57562843D01*
X128966588Y-57369413D01*
X129055614Y-57154485D01*
X129101000Y-56926318D01*
X129101000Y-56693682D01*
X129055614Y-56465515D01*
X128966588Y-56250587D01*
X128837342Y-56057157D01*
X128672843Y-55892658D01*
X128479413Y-55763412D01*
X128264485Y-55674386D01*
X128036318Y-55629000D01*
X127803682Y-55629000D01*
X127575515Y-55674386D01*
X127360587Y-55763412D01*
X127167157Y-55892658D01*
X127002658Y-56057157D01*
X126873412Y-56250587D01*
X126784386Y-56465515D01*
X126739000Y-56693682D01*
X123406000Y-56693682D01*
X123406000Y-54153682D01*
X126739000Y-54153682D01*
X126739000Y-54386318D01*
X126784386Y-54614485D01*
X126873412Y-54829413D01*
X127002658Y-55022843D01*
X127167157Y-55187342D01*
X127360587Y-55316588D01*
X127575515Y-55405614D01*
X127803682Y-55451000D01*
X128036318Y-55451000D01*
X128264485Y-55405614D01*
X128479413Y-55316588D01*
X128672843Y-55187342D01*
X128837342Y-55022843D01*
X128937991Y-54872212D01*
X131869000Y-57803222D01*
X131869001Y-59934011D01*
X131828492Y-59946299D01*
X131762304Y-59981678D01*
X131747994Y-59993422D01*
X131766516Y-59900303D01*
X131766516Y-59746459D01*
X131736503Y-59595572D01*
X131677629Y-59453439D01*
X131592158Y-59325522D01*
X131483375Y-59216739D01*
X131355458Y-59131268D01*
X131213325Y-59072394D01*
X131062438Y-59042381D01*
X130908594Y-59042381D01*
X130757707Y-59072394D01*
X130615574Y-59131268D01*
X130487657Y-59216739D01*
X130378874Y-59325522D01*
X130293403Y-59453439D01*
X130234529Y-59595572D01*
X130204516Y-59746459D01*
X130204516Y-59900303D01*
X130234529Y-60051190D01*
X130293403Y-60193323D01*
X130374896Y-60315286D01*
X130353356Y-60386293D01*
X130342157Y-60500000D01*
X130342157Y-61700000D01*
X130353356Y-61813707D01*
X130386523Y-61923044D01*
X130440384Y-62023810D01*
X130512868Y-62112132D01*
X130601190Y-62184616D01*
X130701956Y-62238477D01*
X130811293Y-62271644D01*
X130925000Y-62282843D01*
X131325000Y-62282843D01*
X131438707Y-62271644D01*
X131548044Y-62238477D01*
X131648810Y-62184616D01*
X131688780Y-62151813D01*
X131704289Y-62170711D01*
X131762304Y-62218322D01*
X131828492Y-62253701D01*
X131900311Y-62275487D01*
X131975000Y-62282843D01*
X132775000Y-62282843D01*
X132849689Y-62275487D01*
X132921508Y-62253701D01*
X132987696Y-62218322D01*
X133000000Y-62208225D01*
X133012304Y-62218322D01*
X133078492Y-62253701D01*
X133150311Y-62275487D01*
X133225000Y-62282843D01*
X134025000Y-62282843D01*
X134099689Y-62275487D01*
X134171508Y-62253701D01*
X134237696Y-62218322D01*
X134250000Y-62208225D01*
X134262304Y-62218322D01*
X134328492Y-62253701D01*
X134400311Y-62275487D01*
X134475000Y-62282843D01*
X134652750Y-62281000D01*
X134748000Y-62185750D01*
X134748000Y-61227000D01*
X135002000Y-61227000D01*
X135002000Y-62185750D01*
X135097250Y-62281000D01*
X135275000Y-62282843D01*
X135349689Y-62275487D01*
X135421508Y-62253701D01*
X135487696Y-62218322D01*
X135545711Y-62170711D01*
X135593322Y-62112696D01*
X135628701Y-62046508D01*
X135650487Y-61974689D01*
X135657843Y-61900000D01*
X135656000Y-61322250D01*
X135560750Y-61227000D01*
X135002000Y-61227000D01*
X134748000Y-61227000D01*
X134728000Y-61227000D01*
X134728000Y-60973000D01*
X134748000Y-60973000D01*
X134748000Y-60014250D01*
X135002000Y-60014250D01*
X135002000Y-60973000D01*
X135560750Y-60973000D01*
X135656000Y-60877750D01*
X135657843Y-60300000D01*
X135650487Y-60225311D01*
X135628701Y-60153492D01*
X135593322Y-60087304D01*
X135545711Y-60029289D01*
X135487696Y-59981678D01*
X135421508Y-59946299D01*
X135349689Y-59924513D01*
X135275000Y-59917157D01*
X135097250Y-59919000D01*
X135002000Y-60014250D01*
X134748000Y-60014250D01*
X134652750Y-59919000D01*
X134475000Y-59917157D01*
X134400311Y-59924513D01*
X134328492Y-59946299D01*
X134262304Y-59981678D01*
X134250000Y-59991775D01*
X134237696Y-59981678D01*
X134171508Y-59946299D01*
X134131000Y-59934011D01*
X134131000Y-58784591D01*
X135599592Y-57316000D01*
X137011288Y-57316000D01*
X137033412Y-57369413D01*
X137162658Y-57562843D01*
X137327157Y-57727342D01*
X137520587Y-57856588D01*
X137735515Y-57945614D01*
X137963682Y-57991000D01*
X138196318Y-57991000D01*
X138424485Y-57945614D01*
X138639413Y-57856588D01*
X138832843Y-57727342D01*
X138997342Y-57562843D01*
X139126588Y-57369413D01*
X139215614Y-57154485D01*
X139261000Y-56926318D01*
X139261000Y-56693682D01*
X139215614Y-56465515D01*
X139126588Y-56250587D01*
X138997342Y-56057157D01*
X138832843Y-55892658D01*
X138639413Y-55763412D01*
X138424485Y-55674386D01*
X138196318Y-55629000D01*
X137963682Y-55629000D01*
X137735515Y-55674386D01*
X137520587Y-55763412D01*
X137327157Y-55892658D01*
X137162658Y-56057157D01*
X137033412Y-56250587D01*
X137011288Y-56304000D01*
X135414854Y-56304000D01*
X135390000Y-56301552D01*
X135365146Y-56304000D01*
X135290807Y-56311322D01*
X135195425Y-56340255D01*
X135107521Y-56387241D01*
X135030473Y-56450473D01*
X135014628Y-56469780D01*
X133284781Y-58199628D01*
X133265474Y-58215473D01*
X133202242Y-58292521D01*
X133177127Y-58339508D01*
X133155255Y-58380426D01*
X133126322Y-58475808D01*
X133116553Y-58575000D01*
X133119001Y-58599856D01*
X133119000Y-59934011D01*
X133078492Y-59946299D01*
X133012304Y-59981678D01*
X133000000Y-59991775D01*
X132987696Y-59981678D01*
X132921508Y-59946299D01*
X132881000Y-59934011D01*
X132881000Y-57618484D01*
X132883448Y-57593630D01*
X132873678Y-57494437D01*
X132844745Y-57399055D01*
X132828901Y-57369413D01*
X132797759Y-57311151D01*
X132734527Y-57234103D01*
X132715220Y-57218258D01*
X129650644Y-54153682D01*
X136899000Y-54153682D01*
X136899000Y-54386318D01*
X136944386Y-54614485D01*
X137033412Y-54829413D01*
X137162658Y-55022843D01*
X137327157Y-55187342D01*
X137520587Y-55316588D01*
X137735515Y-55405614D01*
X137963682Y-55451000D01*
X138196318Y-55451000D01*
X138424485Y-55405614D01*
X138639413Y-55316588D01*
X138832843Y-55187342D01*
X138997342Y-55022843D01*
X139126588Y-54829413D01*
X139215614Y-54614485D01*
X139261000Y-54386318D01*
X139261000Y-54153682D01*
X139215614Y-53925515D01*
X139126588Y-53710587D01*
X138997342Y-53517157D01*
X138832843Y-53352658D01*
X138639413Y-53223412D01*
X138424485Y-53134386D01*
X138196318Y-53089000D01*
X137963682Y-53089000D01*
X137735515Y-53134386D01*
X137520587Y-53223412D01*
X137327157Y-53352658D01*
X137162658Y-53517157D01*
X137033412Y-53710587D01*
X136944386Y-53925515D01*
X136899000Y-54153682D01*
X129650644Y-54153682D01*
X129426746Y-53929785D01*
X129410897Y-53910473D01*
X129333849Y-53847241D01*
X129245945Y-53800255D01*
X129150563Y-53771322D01*
X129076224Y-53764000D01*
X129076216Y-53764000D01*
X129051370Y-53761553D01*
X129026524Y-53764000D01*
X128988712Y-53764000D01*
X128966588Y-53710587D01*
X128837342Y-53517157D01*
X128672843Y-53352658D01*
X128479413Y-53223412D01*
X128264485Y-53134386D01*
X128036318Y-53089000D01*
X127803682Y-53089000D01*
X127575515Y-53134386D01*
X127360587Y-53223412D01*
X127167157Y-53352658D01*
X127002658Y-53517157D01*
X126873412Y-53710587D01*
X126784386Y-53925515D01*
X126739000Y-54153682D01*
X123406000Y-54153682D01*
X123406000Y-51130000D01*
X124167157Y-51130000D01*
X124167157Y-52330000D01*
X124174513Y-52404689D01*
X124196299Y-52476508D01*
X124231678Y-52542696D01*
X124279289Y-52600711D01*
X124337304Y-52648322D01*
X124403492Y-52683701D01*
X124475311Y-52705487D01*
X124550000Y-52712843D01*
X125450000Y-52712843D01*
X125524689Y-52705487D01*
X125596508Y-52683701D01*
X125662696Y-52648322D01*
X125720711Y-52600711D01*
X125768322Y-52542696D01*
X125803701Y-52476508D01*
X125825487Y-52404689D01*
X125832843Y-52330000D01*
X125832843Y-52236000D01*
X126851288Y-52236000D01*
X126873412Y-52289413D01*
X127002658Y-52482843D01*
X127167157Y-52647342D01*
X127360587Y-52776588D01*
X127575515Y-52865614D01*
X127803682Y-52911000D01*
X128036318Y-52911000D01*
X128264485Y-52865614D01*
X128479413Y-52776588D01*
X128672843Y-52647342D01*
X128837342Y-52482843D01*
X128966588Y-52289413D01*
X129055614Y-52074485D01*
X129101000Y-51846318D01*
X129101000Y-51613682D01*
X136899000Y-51613682D01*
X136899000Y-51846318D01*
X136944386Y-52074485D01*
X137033412Y-52289413D01*
X137162658Y-52482843D01*
X137327157Y-52647342D01*
X137520587Y-52776588D01*
X137735515Y-52865614D01*
X137963682Y-52911000D01*
X138196318Y-52911000D01*
X138424485Y-52865614D01*
X138639413Y-52776588D01*
X138832843Y-52647342D01*
X138997342Y-52482843D01*
X139126588Y-52289413D01*
X139215614Y-52074485D01*
X139261000Y-51846318D01*
X139261000Y-51613682D01*
X139215614Y-51385515D01*
X139126588Y-51170587D01*
X138997342Y-50977157D01*
X138832843Y-50812658D01*
X138639413Y-50683412D01*
X138424485Y-50594386D01*
X138196318Y-50549000D01*
X137963682Y-50549000D01*
X137735515Y-50594386D01*
X137520587Y-50683412D01*
X137327157Y-50812658D01*
X137162658Y-50977157D01*
X137033412Y-51170587D01*
X136944386Y-51385515D01*
X136899000Y-51613682D01*
X129101000Y-51613682D01*
X129055614Y-51385515D01*
X128966588Y-51170587D01*
X128837342Y-50977157D01*
X128672843Y-50812658D01*
X128479413Y-50683412D01*
X128264485Y-50594386D01*
X128036318Y-50549000D01*
X127803682Y-50549000D01*
X127575515Y-50594386D01*
X127360587Y-50683412D01*
X127167157Y-50812658D01*
X127002658Y-50977157D01*
X126873412Y-51170587D01*
X126851288Y-51224000D01*
X125832843Y-51224000D01*
X125832843Y-51130000D01*
X125825487Y-51055311D01*
X125803701Y-50983492D01*
X125768322Y-50917304D01*
X125720711Y-50859289D01*
X125662696Y-50811678D01*
X125596508Y-50776299D01*
X125524689Y-50754513D01*
X125450000Y-50747157D01*
X124550000Y-50747157D01*
X124475311Y-50754513D01*
X124403492Y-50776299D01*
X124337304Y-50811678D01*
X124279289Y-50859289D01*
X124231678Y-50917304D01*
X124196299Y-50983492D01*
X124174513Y-51055311D01*
X124167157Y-51130000D01*
X123406000Y-51130000D01*
X123406000Y-48930000D01*
X124167157Y-48930000D01*
X124167157Y-50130000D01*
X124174513Y-50204689D01*
X124196299Y-50276508D01*
X124231678Y-50342696D01*
X124279289Y-50400711D01*
X124337304Y-50448322D01*
X124403492Y-50483701D01*
X124475311Y-50505487D01*
X124550000Y-50512843D01*
X125450000Y-50512843D01*
X125524689Y-50505487D01*
X125596508Y-50483701D01*
X125662696Y-50448322D01*
X125720711Y-50400711D01*
X125768322Y-50342696D01*
X125803701Y-50276508D01*
X125825487Y-50204689D01*
X125832843Y-50130000D01*
X125832843Y-48930000D01*
X125825487Y-48855311D01*
X125803701Y-48783492D01*
X125768322Y-48717304D01*
X125720711Y-48659289D01*
X125662696Y-48611678D01*
X125596508Y-48576299D01*
X125544143Y-48560414D01*
X125606642Y-48497915D01*
X125678748Y-48390000D01*
X126737157Y-48390000D01*
X126737157Y-49990000D01*
X126744513Y-50064689D01*
X126766299Y-50136508D01*
X126801678Y-50202696D01*
X126849289Y-50260711D01*
X126907304Y-50308322D01*
X126973492Y-50343701D01*
X127045311Y-50365487D01*
X127120000Y-50372843D01*
X128720000Y-50372843D01*
X128794689Y-50365487D01*
X128866508Y-50343701D01*
X128932696Y-50308322D01*
X128990711Y-50260711D01*
X129038322Y-50202696D01*
X129073701Y-50136508D01*
X129095487Y-50064689D01*
X129102843Y-49990000D01*
X129102843Y-49499114D01*
X136940171Y-49499114D01*
X136960527Y-49566239D01*
X137055438Y-49777408D01*
X137189722Y-49966003D01*
X137358219Y-50124777D01*
X137554454Y-50247628D01*
X137770885Y-50329835D01*
X137953000Y-50268908D01*
X137953000Y-49317000D01*
X138207000Y-49317000D01*
X138207000Y-50268908D01*
X138389115Y-50329835D01*
X138605546Y-50247628D01*
X138801781Y-50124777D01*
X138970278Y-49966003D01*
X139104562Y-49777408D01*
X139199473Y-49566239D01*
X139219829Y-49499114D01*
X139158297Y-49317000D01*
X138207000Y-49317000D01*
X137953000Y-49317000D01*
X137001703Y-49317000D01*
X136940171Y-49499114D01*
X129102843Y-49499114D01*
X129102843Y-48880886D01*
X136940171Y-48880886D01*
X137001703Y-49063000D01*
X137953000Y-49063000D01*
X137953000Y-48111092D01*
X138207000Y-48111092D01*
X138207000Y-49063000D01*
X139158297Y-49063000D01*
X139219829Y-48880886D01*
X139199473Y-48813761D01*
X139104562Y-48602592D01*
X138970278Y-48413997D01*
X138801781Y-48255223D01*
X138605546Y-48132372D01*
X138389115Y-48050165D01*
X138207000Y-48111092D01*
X137953000Y-48111092D01*
X137770885Y-48050165D01*
X137554454Y-48132372D01*
X137358219Y-48255223D01*
X137189722Y-48413997D01*
X137055438Y-48602592D01*
X136960527Y-48813761D01*
X136940171Y-48880886D01*
X129102843Y-48880886D01*
X129102843Y-48390000D01*
X129095487Y-48315311D01*
X129073701Y-48243492D01*
X129038322Y-48177304D01*
X128990711Y-48119289D01*
X128932696Y-48071678D01*
X128866508Y-48036299D01*
X128794689Y-48014513D01*
X128720000Y-48007157D01*
X128426000Y-48007157D01*
X128426000Y-47714591D01*
X129265591Y-46875000D01*
X137297157Y-46875000D01*
X137304513Y-46949689D01*
X137326299Y-47021508D01*
X137361678Y-47087696D01*
X137409289Y-47145711D01*
X137467304Y-47193322D01*
X137533492Y-47228701D01*
X137605311Y-47250487D01*
X137680000Y-47257843D01*
X137857750Y-47256000D01*
X137953000Y-47160750D01*
X137953000Y-46627000D01*
X137394250Y-46627000D01*
X137299000Y-46722250D01*
X137297157Y-46875000D01*
X129265591Y-46875000D01*
X129309592Y-46831000D01*
X131975154Y-46831000D01*
X132000000Y-46833447D01*
X132024846Y-46831000D01*
X132024854Y-46831000D01*
X132099193Y-46823678D01*
X132194575Y-46794745D01*
X132282479Y-46747759D01*
X132359527Y-46684527D01*
X132375376Y-46665215D01*
X132715220Y-46325372D01*
X132734527Y-46309527D01*
X132797759Y-46232479D01*
X132844745Y-46144575D01*
X132867325Y-46070137D01*
X132921508Y-46053701D01*
X132987696Y-46018322D01*
X133000000Y-46008225D01*
X133012304Y-46018322D01*
X133078492Y-46053701D01*
X133150311Y-46075487D01*
X133225000Y-46082843D01*
X134025000Y-46082843D01*
X134099689Y-46075487D01*
X134171508Y-46053701D01*
X134237696Y-46018322D01*
X134295711Y-45970711D01*
X134311220Y-45951813D01*
X134351190Y-45984616D01*
X134451956Y-46038477D01*
X134561293Y-46071644D01*
X134675000Y-46082843D01*
X135075000Y-46082843D01*
X135184315Y-46072077D01*
X135268360Y-46197859D01*
X135377143Y-46306642D01*
X135505060Y-46392113D01*
X135647193Y-46450987D01*
X135798080Y-46481000D01*
X135951924Y-46481000D01*
X136102811Y-46450987D01*
X136244944Y-46392113D01*
X136372861Y-46306642D01*
X136481644Y-46197859D01*
X136530326Y-46125000D01*
X137297157Y-46125000D01*
X137299000Y-46277750D01*
X137394250Y-46373000D01*
X137953000Y-46373000D01*
X137953000Y-45839250D01*
X138207000Y-45839250D01*
X138207000Y-46373000D01*
X138227000Y-46373000D01*
X138227000Y-46627000D01*
X138207000Y-46627000D01*
X138207000Y-47160750D01*
X138302250Y-47256000D01*
X138480000Y-47257843D01*
X138554689Y-47250487D01*
X138626508Y-47228701D01*
X138692696Y-47193322D01*
X138750711Y-47145711D01*
X138798322Y-47087696D01*
X138830000Y-47028432D01*
X138861678Y-47087696D01*
X138909289Y-47145711D01*
X138967304Y-47193322D01*
X139033492Y-47228701D01*
X139105311Y-47250487D01*
X139180000Y-47257843D01*
X139980000Y-47257843D01*
X140054689Y-47250487D01*
X140126508Y-47228701D01*
X140166623Y-47207259D01*
X140272191Y-47250987D01*
X140423078Y-47281000D01*
X140576922Y-47281000D01*
X140727809Y-47250987D01*
X140869942Y-47192113D01*
X140997859Y-47106642D01*
X141106642Y-46997859D01*
X141192113Y-46869942D01*
X141250987Y-46727809D01*
X141281000Y-46576922D01*
X141281000Y-46423078D01*
X141250987Y-46272191D01*
X141192113Y-46130058D01*
X141106642Y-46002141D01*
X140997859Y-45893358D01*
X140869942Y-45807887D01*
X140727809Y-45749013D01*
X140576922Y-45719000D01*
X140423078Y-45719000D01*
X140272191Y-45749013D01*
X140166623Y-45792741D01*
X140126508Y-45771299D01*
X140054689Y-45749513D01*
X139980000Y-45742157D01*
X139180000Y-45742157D01*
X139105311Y-45749513D01*
X139033492Y-45771299D01*
X138967304Y-45806678D01*
X138909289Y-45854289D01*
X138861678Y-45912304D01*
X138830000Y-45971568D01*
X138798322Y-45912304D01*
X138750711Y-45854289D01*
X138692696Y-45806678D01*
X138626508Y-45771299D01*
X138554689Y-45749513D01*
X138480000Y-45742157D01*
X138302250Y-45744000D01*
X138207000Y-45839250D01*
X137953000Y-45839250D01*
X137857750Y-45744000D01*
X137680000Y-45742157D01*
X137605311Y-45749513D01*
X137533492Y-45771299D01*
X137467304Y-45806678D01*
X137409289Y-45854289D01*
X137361678Y-45912304D01*
X137326299Y-45978492D01*
X137304513Y-46050311D01*
X137297157Y-46125000D01*
X136530326Y-46125000D01*
X136567115Y-46069942D01*
X136625989Y-45927809D01*
X136656002Y-45776922D01*
X136656002Y-45623078D01*
X136625989Y-45472191D01*
X136567115Y-45330058D01*
X136481644Y-45202141D01*
X136372861Y-45093358D01*
X136244944Y-45007887D01*
X136102811Y-44949013D01*
X135951924Y-44919000D01*
X135798080Y-44919000D01*
X135657843Y-44946895D01*
X135657843Y-44300000D01*
X135646644Y-44186293D01*
X135613477Y-44076956D01*
X135559616Y-43976190D01*
X135487132Y-43887868D01*
X135398810Y-43815384D01*
X135298044Y-43761523D01*
X135188707Y-43728356D01*
X135075000Y-43717157D01*
X134675000Y-43717157D01*
X134561293Y-43728356D01*
X134451956Y-43761523D01*
X134351190Y-43815384D01*
X134311220Y-43848187D01*
X134295711Y-43829289D01*
X134237696Y-43781678D01*
X134171508Y-43746299D01*
X134131000Y-43734011D01*
X134131000Y-43699845D01*
X134133447Y-43674999D01*
X134131000Y-43650153D01*
X134131000Y-43650146D01*
X134123678Y-43575807D01*
X134094745Y-43480425D01*
X134047759Y-43392521D01*
X133984527Y-43315473D01*
X133965215Y-43299624D01*
X133825374Y-43159783D01*
X133809525Y-43140471D01*
X133732477Y-43077239D01*
X133644573Y-43030253D01*
X133549191Y-43001320D01*
X133474852Y-42993998D01*
X133474844Y-42993998D01*
X133449998Y-42991551D01*
X133425152Y-42993998D01*
X132973501Y-42993998D01*
X132872859Y-42893356D01*
X132744942Y-42807885D01*
X132602809Y-42749011D01*
X132451922Y-42718998D01*
X132298078Y-42718998D01*
X132147191Y-42749011D01*
X132005058Y-42807885D01*
X131877141Y-42893356D01*
X131768358Y-43002139D01*
X131682887Y-43130056D01*
X131624013Y-43272189D01*
X131594000Y-43423076D01*
X131594000Y-43576920D01*
X131624013Y-43727807D01*
X131625948Y-43732479D01*
X131599689Y-43724513D01*
X131525000Y-43717157D01*
X131347250Y-43719000D01*
X131252000Y-43814250D01*
X131252000Y-44773000D01*
X131272000Y-44773000D01*
X131272000Y-45027000D01*
X131252000Y-45027000D01*
X131252000Y-45047000D01*
X130998000Y-45047000D01*
X130998000Y-45027000D01*
X130439250Y-45027000D01*
X130344000Y-45122250D01*
X130342157Y-45700000D01*
X130349513Y-45774689D01*
X130362955Y-45819000D01*
X129124845Y-45819000D01*
X129099999Y-45816553D01*
X129075153Y-45819000D01*
X129075146Y-45819000D01*
X129000807Y-45826322D01*
X128905425Y-45855255D01*
X128817521Y-45902241D01*
X128740473Y-45965473D01*
X128724629Y-45984779D01*
X127579780Y-47129629D01*
X127560474Y-47145473D01*
X127497242Y-47222521D01*
X127479347Y-47256000D01*
X127450255Y-47310426D01*
X127421322Y-47405808D01*
X127411553Y-47505000D01*
X127414001Y-47529856D01*
X127414001Y-48007157D01*
X127120000Y-48007157D01*
X127045311Y-48014513D01*
X126973492Y-48036299D01*
X126907304Y-48071678D01*
X126849289Y-48119289D01*
X126801678Y-48177304D01*
X126766299Y-48243492D01*
X126744513Y-48315311D01*
X126737157Y-48390000D01*
X125678748Y-48390000D01*
X125692113Y-48369998D01*
X125750987Y-48227865D01*
X125781000Y-48076978D01*
X125781000Y-47923134D01*
X125750987Y-47772247D01*
X125692113Y-47630114D01*
X125606642Y-47502197D01*
X125497859Y-47393414D01*
X125369942Y-47307943D01*
X125227809Y-47249069D01*
X125076922Y-47219056D01*
X124923078Y-47219056D01*
X124772191Y-47249069D01*
X124630058Y-47307943D01*
X124502141Y-47393414D01*
X124393358Y-47502197D01*
X124307887Y-47630114D01*
X124249013Y-47772247D01*
X124219000Y-47923134D01*
X124219000Y-48076978D01*
X124249013Y-48227865D01*
X124307887Y-48369998D01*
X124393358Y-48497915D01*
X124455857Y-48560414D01*
X124403492Y-48576299D01*
X124337304Y-48611678D01*
X124279289Y-48659289D01*
X124231678Y-48717304D01*
X124196299Y-48783492D01*
X124174513Y-48855311D01*
X124167157Y-48930000D01*
X123406000Y-48930000D01*
X123406000Y-46273500D01*
X125132191Y-46273500D01*
X125132191Y-44281000D01*
X125224659Y-44281000D01*
X125665343Y-44193343D01*
X125890692Y-44100000D01*
X130342157Y-44100000D01*
X130344000Y-44677750D01*
X130439250Y-44773000D01*
X130998000Y-44773000D01*
X130998000Y-43814250D01*
X130902750Y-43719000D01*
X130725000Y-43717157D01*
X130650311Y-43724513D01*
X130578492Y-43746299D01*
X130512304Y-43781678D01*
X130454289Y-43829289D01*
X130406678Y-43887304D01*
X130371299Y-43953492D01*
X130349513Y-44025311D01*
X130342157Y-44100000D01*
X125890692Y-44100000D01*
X126080459Y-44021396D01*
X126454053Y-43771769D01*
X126771769Y-43454053D01*
X127021396Y-43080459D01*
X127142157Y-42788917D01*
X127142157Y-42975000D01*
X127159601Y-43152111D01*
X127211262Y-43322416D01*
X127295156Y-43479371D01*
X127408058Y-43616942D01*
X127545629Y-43729844D01*
X127702584Y-43813738D01*
X127872889Y-43865399D01*
X128050000Y-43882843D01*
X129100000Y-43882843D01*
X129277111Y-43865399D01*
X129447416Y-43813738D01*
X129604371Y-43729844D01*
X129741942Y-43616942D01*
X129854844Y-43479371D01*
X129938738Y-43322416D01*
X129990399Y-43152111D01*
X130007843Y-42975000D01*
X130007843Y-41025000D01*
X129990399Y-40847889D01*
X129938738Y-40677584D01*
X129854844Y-40520629D01*
X129760770Y-40406000D01*
X136239230Y-40406000D01*
X136145156Y-40520629D01*
G04 #@! TA.AperFunction,Conductor*
D20*
G36*
X136145156Y-40520629D02*
G01*
X136061262Y-40677584D01*
X136009601Y-40847889D01*
X135992157Y-41025000D01*
X135992157Y-42975000D01*
X136009601Y-43152111D01*
X136061262Y-43322416D01*
X136145156Y-43479371D01*
X136258058Y-43616942D01*
X136395629Y-43729844D01*
X136552584Y-43813738D01*
X136722889Y-43865399D01*
X136900000Y-43882843D01*
X137950000Y-43882843D01*
X138127111Y-43865399D01*
X138297416Y-43813738D01*
X138454371Y-43729844D01*
X138591942Y-43616942D01*
X138704844Y-43479371D01*
X138788738Y-43322416D01*
X138840399Y-43152111D01*
X138857843Y-42975000D01*
X138857843Y-42788917D01*
X138978604Y-43080459D01*
X139228231Y-43454053D01*
X139545947Y-43771769D01*
X139919541Y-44021396D01*
X140334657Y-44193343D01*
X140775341Y-44281000D01*
X141224659Y-44281000D01*
X141665343Y-44193343D01*
X142080459Y-44021396D01*
X142454053Y-43771769D01*
X142594000Y-43631822D01*
X142594001Y-62368179D01*
X142454053Y-62228231D01*
X142080459Y-61978604D01*
X141665343Y-61806657D01*
X141224659Y-61719000D01*
X140775341Y-61719000D01*
X140334657Y-61806657D01*
X139919541Y-61978604D01*
X139545947Y-62228231D01*
X139228231Y-62545947D01*
X138978604Y-62919541D01*
X138857843Y-63211083D01*
X138857843Y-63025000D01*
X138840399Y-62847889D01*
X138788738Y-62677584D01*
X138704844Y-62520629D01*
X138591942Y-62383058D01*
X138454371Y-62270156D01*
X138297416Y-62186262D01*
X138127111Y-62134601D01*
X137950000Y-62117157D01*
X136900000Y-62117157D01*
X136722889Y-62134601D01*
X136552584Y-62186262D01*
X136395629Y-62270156D01*
X136258058Y-62383058D01*
X136145156Y-62520629D01*
X136061262Y-62677584D01*
X136009601Y-62847889D01*
X135992157Y-63025000D01*
X135992157Y-64975000D01*
X136009601Y-65152111D01*
X136061262Y-65322416D01*
X136145156Y-65479371D01*
X136239230Y-65594000D01*
X129760770Y-65594000D01*
X129854844Y-65479371D01*
X129938738Y-65322416D01*
X129990399Y-65152111D01*
X130007843Y-64975000D01*
X130007843Y-63025000D01*
X129990399Y-62847889D01*
X129938738Y-62677584D01*
X129854844Y-62520629D01*
X129741942Y-62383058D01*
X129604371Y-62270156D01*
X129447416Y-62186262D01*
X129277111Y-62134601D01*
X129100000Y-62117157D01*
X128050000Y-62117157D01*
X127872889Y-62134601D01*
X127702584Y-62186262D01*
X127545629Y-62270156D01*
X127408058Y-62383058D01*
X127295156Y-62520629D01*
X127211262Y-62677584D01*
X127159601Y-62847889D01*
X127142157Y-63025000D01*
X127142157Y-63211083D01*
X127021396Y-62919541D01*
X126771769Y-62545947D01*
X126454053Y-62228231D01*
X126080459Y-61978604D01*
X125665343Y-61806657D01*
X125224659Y-61719000D01*
X124775341Y-61719000D01*
X124334657Y-61806657D01*
X123919541Y-61978604D01*
X123545947Y-62228231D01*
X123406000Y-62368178D01*
X123406000Y-56693682D01*
X126739000Y-56693682D01*
X126739000Y-56926318D01*
X126784386Y-57154485D01*
X126873412Y-57369413D01*
X127002658Y-57562843D01*
X127167157Y-57727342D01*
X127360587Y-57856588D01*
X127575515Y-57945614D01*
X127803682Y-57991000D01*
X128036318Y-57991000D01*
X128264485Y-57945614D01*
X128479413Y-57856588D01*
X128672843Y-57727342D01*
X128837342Y-57562843D01*
X128966588Y-57369413D01*
X129055614Y-57154485D01*
X129101000Y-56926318D01*
X129101000Y-56693682D01*
X129055614Y-56465515D01*
X128966588Y-56250587D01*
X128837342Y-56057157D01*
X128672843Y-55892658D01*
X128479413Y-55763412D01*
X128264485Y-55674386D01*
X128036318Y-55629000D01*
X127803682Y-55629000D01*
X127575515Y-55674386D01*
X127360587Y-55763412D01*
X127167157Y-55892658D01*
X127002658Y-56057157D01*
X126873412Y-56250587D01*
X126784386Y-56465515D01*
X126739000Y-56693682D01*
X123406000Y-56693682D01*
X123406000Y-54153682D01*
X126739000Y-54153682D01*
X126739000Y-54386318D01*
X126784386Y-54614485D01*
X126873412Y-54829413D01*
X127002658Y-55022843D01*
X127167157Y-55187342D01*
X127360587Y-55316588D01*
X127575515Y-55405614D01*
X127803682Y-55451000D01*
X128036318Y-55451000D01*
X128264485Y-55405614D01*
X128479413Y-55316588D01*
X128672843Y-55187342D01*
X128837342Y-55022843D01*
X128937991Y-54872212D01*
X131869000Y-57803222D01*
X131869001Y-59934011D01*
X131828492Y-59946299D01*
X131762304Y-59981678D01*
X131747994Y-59993422D01*
X131766516Y-59900303D01*
X131766516Y-59746459D01*
X131736503Y-59595572D01*
X131677629Y-59453439D01*
X131592158Y-59325522D01*
X131483375Y-59216739D01*
X131355458Y-59131268D01*
X131213325Y-59072394D01*
X131062438Y-59042381D01*
X130908594Y-59042381D01*
X130757707Y-59072394D01*
X130615574Y-59131268D01*
X130487657Y-59216739D01*
X130378874Y-59325522D01*
X130293403Y-59453439D01*
X130234529Y-59595572D01*
X130204516Y-59746459D01*
X130204516Y-59900303D01*
X130234529Y-60051190D01*
X130293403Y-60193323D01*
X130374896Y-60315286D01*
X130353356Y-60386293D01*
X130342157Y-60500000D01*
X130342157Y-61700000D01*
X130353356Y-61813707D01*
X130386523Y-61923044D01*
X130440384Y-62023810D01*
X130512868Y-62112132D01*
X130601190Y-62184616D01*
X130701956Y-62238477D01*
X130811293Y-62271644D01*
X130925000Y-62282843D01*
X131325000Y-62282843D01*
X131438707Y-62271644D01*
X131548044Y-62238477D01*
X131648810Y-62184616D01*
X131688780Y-62151813D01*
X131704289Y-62170711D01*
X131762304Y-62218322D01*
X131828492Y-62253701D01*
X131900311Y-62275487D01*
X131975000Y-62282843D01*
X132775000Y-62282843D01*
X132849689Y-62275487D01*
X132921508Y-62253701D01*
X132987696Y-62218322D01*
X133000000Y-62208225D01*
X133012304Y-62218322D01*
X133078492Y-62253701D01*
X133150311Y-62275487D01*
X133225000Y-62282843D01*
X134025000Y-62282843D01*
X134099689Y-62275487D01*
X134171508Y-62253701D01*
X134237696Y-62218322D01*
X134250000Y-62208225D01*
X134262304Y-62218322D01*
X134328492Y-62253701D01*
X134400311Y-62275487D01*
X134475000Y-62282843D01*
X134652750Y-62281000D01*
X134748000Y-62185750D01*
X134748000Y-61227000D01*
X135002000Y-61227000D01*
X135002000Y-62185750D01*
X135097250Y-62281000D01*
X135275000Y-62282843D01*
X135349689Y-62275487D01*
X135421508Y-62253701D01*
X135487696Y-62218322D01*
X135545711Y-62170711D01*
X135593322Y-62112696D01*
X135628701Y-62046508D01*
X135650487Y-61974689D01*
X135657843Y-61900000D01*
X135656000Y-61322250D01*
X135560750Y-61227000D01*
X135002000Y-61227000D01*
X134748000Y-61227000D01*
X134728000Y-61227000D01*
X134728000Y-60973000D01*
X134748000Y-60973000D01*
X134748000Y-60014250D01*
X135002000Y-60014250D01*
X135002000Y-60973000D01*
X135560750Y-60973000D01*
X135656000Y-60877750D01*
X135657843Y-60300000D01*
X135650487Y-60225311D01*
X135628701Y-60153492D01*
X135593322Y-60087304D01*
X135545711Y-60029289D01*
X135487696Y-59981678D01*
X135421508Y-59946299D01*
X135349689Y-59924513D01*
X135275000Y-59917157D01*
X135097250Y-59919000D01*
X135002000Y-60014250D01*
X134748000Y-60014250D01*
X134652750Y-59919000D01*
X134475000Y-59917157D01*
X134400311Y-59924513D01*
X134328492Y-59946299D01*
X134262304Y-59981678D01*
X134250000Y-59991775D01*
X134237696Y-59981678D01*
X134171508Y-59946299D01*
X134131000Y-59934011D01*
X134131000Y-58784591D01*
X135599592Y-57316000D01*
X137011288Y-57316000D01*
X137033412Y-57369413D01*
X137162658Y-57562843D01*
X137327157Y-57727342D01*
X137520587Y-57856588D01*
X137735515Y-57945614D01*
X137963682Y-57991000D01*
X138196318Y-57991000D01*
X138424485Y-57945614D01*
X138639413Y-57856588D01*
X138832843Y-57727342D01*
X138997342Y-57562843D01*
X139126588Y-57369413D01*
X139215614Y-57154485D01*
X139261000Y-56926318D01*
X139261000Y-56693682D01*
X139215614Y-56465515D01*
X139126588Y-56250587D01*
X138997342Y-56057157D01*
X138832843Y-55892658D01*
X138639413Y-55763412D01*
X138424485Y-55674386D01*
X138196318Y-55629000D01*
X137963682Y-55629000D01*
X137735515Y-55674386D01*
X137520587Y-55763412D01*
X137327157Y-55892658D01*
X137162658Y-56057157D01*
X137033412Y-56250587D01*
X137011288Y-56304000D01*
X135414854Y-56304000D01*
X135390000Y-56301552D01*
X135365146Y-56304000D01*
X135290807Y-56311322D01*
X135195425Y-56340255D01*
X135107521Y-56387241D01*
X135030473Y-56450473D01*
X135014628Y-56469780D01*
X133284781Y-58199628D01*
X133265474Y-58215473D01*
X133202242Y-58292521D01*
X133177127Y-58339508D01*
X133155255Y-58380426D01*
X133126322Y-58475808D01*
X133116553Y-58575000D01*
X133119001Y-58599856D01*
X133119000Y-59934011D01*
X133078492Y-59946299D01*
X133012304Y-59981678D01*
X133000000Y-59991775D01*
X132987696Y-59981678D01*
X132921508Y-59946299D01*
X132881000Y-59934011D01*
X132881000Y-57618484D01*
X132883448Y-57593630D01*
X132873678Y-57494437D01*
X132844745Y-57399055D01*
X132828901Y-57369413D01*
X132797759Y-57311151D01*
X132734527Y-57234103D01*
X132715220Y-57218258D01*
X129650644Y-54153682D01*
X136899000Y-54153682D01*
X136899000Y-54386318D01*
X136944386Y-54614485D01*
X137033412Y-54829413D01*
X137162658Y-55022843D01*
X137327157Y-55187342D01*
X137520587Y-55316588D01*
X137735515Y-55405614D01*
X137963682Y-55451000D01*
X138196318Y-55451000D01*
X138424485Y-55405614D01*
X138639413Y-55316588D01*
X138832843Y-55187342D01*
X138997342Y-55022843D01*
X139126588Y-54829413D01*
X139215614Y-54614485D01*
X139261000Y-54386318D01*
X139261000Y-54153682D01*
X139215614Y-53925515D01*
X139126588Y-53710587D01*
X138997342Y-53517157D01*
X138832843Y-53352658D01*
X138639413Y-53223412D01*
X138424485Y-53134386D01*
X138196318Y-53089000D01*
X137963682Y-53089000D01*
X137735515Y-53134386D01*
X137520587Y-53223412D01*
X137327157Y-53352658D01*
X137162658Y-53517157D01*
X137033412Y-53710587D01*
X136944386Y-53925515D01*
X136899000Y-54153682D01*
X129650644Y-54153682D01*
X129426746Y-53929785D01*
X129410897Y-53910473D01*
X129333849Y-53847241D01*
X129245945Y-53800255D01*
X129150563Y-53771322D01*
X129076224Y-53764000D01*
X129076216Y-53764000D01*
X129051370Y-53761553D01*
X129026524Y-53764000D01*
X128988712Y-53764000D01*
X128966588Y-53710587D01*
X128837342Y-53517157D01*
X128672843Y-53352658D01*
X128479413Y-53223412D01*
X128264485Y-53134386D01*
X128036318Y-53089000D01*
X127803682Y-53089000D01*
X127575515Y-53134386D01*
X127360587Y-53223412D01*
X127167157Y-53352658D01*
X127002658Y-53517157D01*
X126873412Y-53710587D01*
X126784386Y-53925515D01*
X126739000Y-54153682D01*
X123406000Y-54153682D01*
X123406000Y-51130000D01*
X124167157Y-51130000D01*
X124167157Y-52330000D01*
X124174513Y-52404689D01*
X124196299Y-52476508D01*
X124231678Y-52542696D01*
X124279289Y-52600711D01*
X124337304Y-52648322D01*
X124403492Y-52683701D01*
X124475311Y-52705487D01*
X124550000Y-52712843D01*
X125450000Y-52712843D01*
X125524689Y-52705487D01*
X125596508Y-52683701D01*
X125662696Y-52648322D01*
X125720711Y-52600711D01*
X125768322Y-52542696D01*
X125803701Y-52476508D01*
X125825487Y-52404689D01*
X125832843Y-52330000D01*
X125832843Y-52236000D01*
X126851288Y-52236000D01*
X126873412Y-52289413D01*
X127002658Y-52482843D01*
X127167157Y-52647342D01*
X127360587Y-52776588D01*
X127575515Y-52865614D01*
X127803682Y-52911000D01*
X128036318Y-52911000D01*
X128264485Y-52865614D01*
X128479413Y-52776588D01*
X128672843Y-52647342D01*
X128837342Y-52482843D01*
X128966588Y-52289413D01*
X129055614Y-52074485D01*
X129101000Y-51846318D01*
X129101000Y-51613682D01*
X136899000Y-51613682D01*
X136899000Y-51846318D01*
X136944386Y-52074485D01*
X137033412Y-52289413D01*
X137162658Y-52482843D01*
X137327157Y-52647342D01*
X137520587Y-52776588D01*
X137735515Y-52865614D01*
X137963682Y-52911000D01*
X138196318Y-52911000D01*
X138424485Y-52865614D01*
X138639413Y-52776588D01*
X138832843Y-52647342D01*
X138997342Y-52482843D01*
X139126588Y-52289413D01*
X139215614Y-52074485D01*
X139261000Y-51846318D01*
X139261000Y-51613682D01*
X139215614Y-51385515D01*
X139126588Y-51170587D01*
X138997342Y-50977157D01*
X138832843Y-50812658D01*
X138639413Y-50683412D01*
X138424485Y-50594386D01*
X138196318Y-50549000D01*
X137963682Y-50549000D01*
X137735515Y-50594386D01*
X137520587Y-50683412D01*
X137327157Y-50812658D01*
X137162658Y-50977157D01*
X137033412Y-51170587D01*
X136944386Y-51385515D01*
X136899000Y-51613682D01*
X129101000Y-51613682D01*
X129055614Y-51385515D01*
X128966588Y-51170587D01*
X128837342Y-50977157D01*
X128672843Y-50812658D01*
X128479413Y-50683412D01*
X128264485Y-50594386D01*
X128036318Y-50549000D01*
X127803682Y-50549000D01*
X127575515Y-50594386D01*
X127360587Y-50683412D01*
X127167157Y-50812658D01*
X127002658Y-50977157D01*
X126873412Y-51170587D01*
X126851288Y-51224000D01*
X125832843Y-51224000D01*
X125832843Y-51130000D01*
X125825487Y-51055311D01*
X125803701Y-50983492D01*
X125768322Y-50917304D01*
X125720711Y-50859289D01*
X125662696Y-50811678D01*
X125596508Y-50776299D01*
X125524689Y-50754513D01*
X125450000Y-50747157D01*
X124550000Y-50747157D01*
X124475311Y-50754513D01*
X124403492Y-50776299D01*
X124337304Y-50811678D01*
X124279289Y-50859289D01*
X124231678Y-50917304D01*
X124196299Y-50983492D01*
X124174513Y-51055311D01*
X124167157Y-51130000D01*
X123406000Y-51130000D01*
X123406000Y-48930000D01*
X124167157Y-48930000D01*
X124167157Y-50130000D01*
X124174513Y-50204689D01*
X124196299Y-50276508D01*
X124231678Y-50342696D01*
X124279289Y-50400711D01*
X124337304Y-50448322D01*
X124403492Y-50483701D01*
X124475311Y-50505487D01*
X124550000Y-50512843D01*
X125450000Y-50512843D01*
X125524689Y-50505487D01*
X125596508Y-50483701D01*
X125662696Y-50448322D01*
X125720711Y-50400711D01*
X125768322Y-50342696D01*
X125803701Y-50276508D01*
X125825487Y-50204689D01*
X125832843Y-50130000D01*
X125832843Y-48930000D01*
X125825487Y-48855311D01*
X125803701Y-48783492D01*
X125768322Y-48717304D01*
X125720711Y-48659289D01*
X125662696Y-48611678D01*
X125596508Y-48576299D01*
X125544143Y-48560414D01*
X125606642Y-48497915D01*
X125678748Y-48390000D01*
X126737157Y-48390000D01*
X126737157Y-49990000D01*
X126744513Y-50064689D01*
X126766299Y-50136508D01*
X126801678Y-50202696D01*
X126849289Y-50260711D01*
X126907304Y-50308322D01*
X126973492Y-50343701D01*
X127045311Y-50365487D01*
X127120000Y-50372843D01*
X128720000Y-50372843D01*
X128794689Y-50365487D01*
X128866508Y-50343701D01*
X128932696Y-50308322D01*
X128990711Y-50260711D01*
X129038322Y-50202696D01*
X129073701Y-50136508D01*
X129095487Y-50064689D01*
X129102843Y-49990000D01*
X129102843Y-49499114D01*
X136940171Y-49499114D01*
X136960527Y-49566239D01*
X137055438Y-49777408D01*
X137189722Y-49966003D01*
X137358219Y-50124777D01*
X137554454Y-50247628D01*
X137770885Y-50329835D01*
X137953000Y-50268908D01*
X137953000Y-49317000D01*
X138207000Y-49317000D01*
X138207000Y-50268908D01*
X138389115Y-50329835D01*
X138605546Y-50247628D01*
X138801781Y-50124777D01*
X138970278Y-49966003D01*
X139104562Y-49777408D01*
X139199473Y-49566239D01*
X139219829Y-49499114D01*
X139158297Y-49317000D01*
X138207000Y-49317000D01*
X137953000Y-49317000D01*
X137001703Y-49317000D01*
X136940171Y-49499114D01*
X129102843Y-49499114D01*
X129102843Y-48880886D01*
X136940171Y-48880886D01*
X137001703Y-49063000D01*
X137953000Y-49063000D01*
X137953000Y-48111092D01*
X138207000Y-48111092D01*
X138207000Y-49063000D01*
X139158297Y-49063000D01*
X139219829Y-48880886D01*
X139199473Y-48813761D01*
X139104562Y-48602592D01*
X138970278Y-48413997D01*
X138801781Y-48255223D01*
X138605546Y-48132372D01*
X138389115Y-48050165D01*
X138207000Y-48111092D01*
X137953000Y-48111092D01*
X137770885Y-48050165D01*
X137554454Y-48132372D01*
X137358219Y-48255223D01*
X137189722Y-48413997D01*
X137055438Y-48602592D01*
X136960527Y-48813761D01*
X136940171Y-48880886D01*
X129102843Y-48880886D01*
X129102843Y-48390000D01*
X129095487Y-48315311D01*
X129073701Y-48243492D01*
X129038322Y-48177304D01*
X128990711Y-48119289D01*
X128932696Y-48071678D01*
X128866508Y-48036299D01*
X128794689Y-48014513D01*
X128720000Y-48007157D01*
X128426000Y-48007157D01*
X128426000Y-47714591D01*
X129265591Y-46875000D01*
X137297157Y-46875000D01*
X137304513Y-46949689D01*
X137326299Y-47021508D01*
X137361678Y-47087696D01*
X137409289Y-47145711D01*
X137467304Y-47193322D01*
X137533492Y-47228701D01*
X137605311Y-47250487D01*
X137680000Y-47257843D01*
X137857750Y-47256000D01*
X137953000Y-47160750D01*
X137953000Y-46627000D01*
X137394250Y-46627000D01*
X137299000Y-46722250D01*
X137297157Y-46875000D01*
X129265591Y-46875000D01*
X129309592Y-46831000D01*
X131975154Y-46831000D01*
X132000000Y-46833447D01*
X132024846Y-46831000D01*
X132024854Y-46831000D01*
X132099193Y-46823678D01*
X132194575Y-46794745D01*
X132282479Y-46747759D01*
X132359527Y-46684527D01*
X132375376Y-46665215D01*
X132715220Y-46325372D01*
X132734527Y-46309527D01*
X132797759Y-46232479D01*
X132844745Y-46144575D01*
X132867325Y-46070137D01*
X132921508Y-46053701D01*
X132987696Y-46018322D01*
X133000000Y-46008225D01*
X133012304Y-46018322D01*
X133078492Y-46053701D01*
X133150311Y-46075487D01*
X133225000Y-46082843D01*
X134025000Y-46082843D01*
X134099689Y-46075487D01*
X134171508Y-46053701D01*
X134237696Y-46018322D01*
X134295711Y-45970711D01*
X134311220Y-45951813D01*
X134351190Y-45984616D01*
X134451956Y-46038477D01*
X134561293Y-46071644D01*
X134675000Y-46082843D01*
X135075000Y-46082843D01*
X135184315Y-46072077D01*
X135268360Y-46197859D01*
X135377143Y-46306642D01*
X135505060Y-46392113D01*
X135647193Y-46450987D01*
X135798080Y-46481000D01*
X135951924Y-46481000D01*
X136102811Y-46450987D01*
X136244944Y-46392113D01*
X136372861Y-46306642D01*
X136481644Y-46197859D01*
X136530326Y-46125000D01*
X137297157Y-46125000D01*
X137299000Y-46277750D01*
X137394250Y-46373000D01*
X137953000Y-46373000D01*
X137953000Y-45839250D01*
X138207000Y-45839250D01*
X138207000Y-46373000D01*
X138227000Y-46373000D01*
X138227000Y-46627000D01*
X138207000Y-46627000D01*
X138207000Y-47160750D01*
X138302250Y-47256000D01*
X138480000Y-47257843D01*
X138554689Y-47250487D01*
X138626508Y-47228701D01*
X138692696Y-47193322D01*
X138750711Y-47145711D01*
X138798322Y-47087696D01*
X138830000Y-47028432D01*
X138861678Y-47087696D01*
X138909289Y-47145711D01*
X138967304Y-47193322D01*
X139033492Y-47228701D01*
X139105311Y-47250487D01*
X139180000Y-47257843D01*
X139980000Y-47257843D01*
X140054689Y-47250487D01*
X140126508Y-47228701D01*
X140166623Y-47207259D01*
X140272191Y-47250987D01*
X140423078Y-47281000D01*
X140576922Y-47281000D01*
X140727809Y-47250987D01*
X140869942Y-47192113D01*
X140997859Y-47106642D01*
X141106642Y-46997859D01*
X141192113Y-46869942D01*
X141250987Y-46727809D01*
X141281000Y-46576922D01*
X141281000Y-46423078D01*
X141250987Y-46272191D01*
X141192113Y-46130058D01*
X141106642Y-46002141D01*
X140997859Y-45893358D01*
X140869942Y-45807887D01*
X140727809Y-45749013D01*
X140576922Y-45719000D01*
X140423078Y-45719000D01*
X140272191Y-45749013D01*
X140166623Y-45792741D01*
X140126508Y-45771299D01*
X140054689Y-45749513D01*
X139980000Y-45742157D01*
X139180000Y-45742157D01*
X139105311Y-45749513D01*
X139033492Y-45771299D01*
X138967304Y-45806678D01*
X138909289Y-45854289D01*
X138861678Y-45912304D01*
X138830000Y-45971568D01*
X138798322Y-45912304D01*
X138750711Y-45854289D01*
X138692696Y-45806678D01*
X138626508Y-45771299D01*
X138554689Y-45749513D01*
X138480000Y-45742157D01*
X138302250Y-45744000D01*
X138207000Y-45839250D01*
X137953000Y-45839250D01*
X137857750Y-45744000D01*
X137680000Y-45742157D01*
X137605311Y-45749513D01*
X137533492Y-45771299D01*
X137467304Y-45806678D01*
X137409289Y-45854289D01*
X137361678Y-45912304D01*
X137326299Y-45978492D01*
X137304513Y-46050311D01*
X137297157Y-46125000D01*
X136530326Y-46125000D01*
X136567115Y-46069942D01*
X136625989Y-45927809D01*
X136656002Y-45776922D01*
X136656002Y-45623078D01*
X136625989Y-45472191D01*
X136567115Y-45330058D01*
X136481644Y-45202141D01*
X136372861Y-45093358D01*
X136244944Y-45007887D01*
X136102811Y-44949013D01*
X135951924Y-44919000D01*
X135798080Y-44919000D01*
X135657843Y-44946895D01*
X135657843Y-44300000D01*
X135646644Y-44186293D01*
X135613477Y-44076956D01*
X135559616Y-43976190D01*
X135487132Y-43887868D01*
X135398810Y-43815384D01*
X135298044Y-43761523D01*
X135188707Y-43728356D01*
X135075000Y-43717157D01*
X134675000Y-43717157D01*
X134561293Y-43728356D01*
X134451956Y-43761523D01*
X134351190Y-43815384D01*
X134311220Y-43848187D01*
X134295711Y-43829289D01*
X134237696Y-43781678D01*
X134171508Y-43746299D01*
X134131000Y-43734011D01*
X134131000Y-43699845D01*
X134133447Y-43674999D01*
X134131000Y-43650153D01*
X134131000Y-43650146D01*
X134123678Y-43575807D01*
X134094745Y-43480425D01*
X134047759Y-43392521D01*
X133984527Y-43315473D01*
X133965215Y-43299624D01*
X133825374Y-43159783D01*
X133809525Y-43140471D01*
X133732477Y-43077239D01*
X133644573Y-43030253D01*
X133549191Y-43001320D01*
X133474852Y-42993998D01*
X133474844Y-42993998D01*
X133449998Y-42991551D01*
X133425152Y-42993998D01*
X132973501Y-42993998D01*
X132872859Y-42893356D01*
X132744942Y-42807885D01*
X132602809Y-42749011D01*
X132451922Y-42718998D01*
X132298078Y-42718998D01*
X132147191Y-42749011D01*
X132005058Y-42807885D01*
X131877141Y-42893356D01*
X131768358Y-43002139D01*
X131682887Y-43130056D01*
X131624013Y-43272189D01*
X131594000Y-43423076D01*
X131594000Y-43576920D01*
X131624013Y-43727807D01*
X131625948Y-43732479D01*
X131599689Y-43724513D01*
X131525000Y-43717157D01*
X131347250Y-43719000D01*
X131252000Y-43814250D01*
X131252000Y-44773000D01*
X131272000Y-44773000D01*
X131272000Y-45027000D01*
X131252000Y-45027000D01*
X131252000Y-45047000D01*
X130998000Y-45047000D01*
X130998000Y-45027000D01*
X130439250Y-45027000D01*
X130344000Y-45122250D01*
X130342157Y-45700000D01*
X130349513Y-45774689D01*
X130362955Y-45819000D01*
X129124845Y-45819000D01*
X129099999Y-45816553D01*
X129075153Y-45819000D01*
X129075146Y-45819000D01*
X129000807Y-45826322D01*
X128905425Y-45855255D01*
X128817521Y-45902241D01*
X128740473Y-45965473D01*
X128724629Y-45984779D01*
X127579780Y-47129629D01*
X127560474Y-47145473D01*
X127497242Y-47222521D01*
X127479347Y-47256000D01*
X127450255Y-47310426D01*
X127421322Y-47405808D01*
X127411553Y-47505000D01*
X127414001Y-47529856D01*
X127414001Y-48007157D01*
X127120000Y-48007157D01*
X127045311Y-48014513D01*
X126973492Y-48036299D01*
X126907304Y-48071678D01*
X126849289Y-48119289D01*
X126801678Y-48177304D01*
X126766299Y-48243492D01*
X126744513Y-48315311D01*
X126737157Y-48390000D01*
X125678748Y-48390000D01*
X125692113Y-48369998D01*
X125750987Y-48227865D01*
X125781000Y-48076978D01*
X125781000Y-47923134D01*
X125750987Y-47772247D01*
X125692113Y-47630114D01*
X125606642Y-47502197D01*
X125497859Y-47393414D01*
X125369942Y-47307943D01*
X125227809Y-47249069D01*
X125076922Y-47219056D01*
X124923078Y-47219056D01*
X124772191Y-47249069D01*
X124630058Y-47307943D01*
X124502141Y-47393414D01*
X124393358Y-47502197D01*
X124307887Y-47630114D01*
X124249013Y-47772247D01*
X124219000Y-47923134D01*
X124219000Y-48076978D01*
X124249013Y-48227865D01*
X124307887Y-48369998D01*
X124393358Y-48497915D01*
X124455857Y-48560414D01*
X124403492Y-48576299D01*
X124337304Y-48611678D01*
X124279289Y-48659289D01*
X124231678Y-48717304D01*
X124196299Y-48783492D01*
X124174513Y-48855311D01*
X124167157Y-48930000D01*
X123406000Y-48930000D01*
X123406000Y-46273500D01*
X125132191Y-46273500D01*
X125132191Y-44281000D01*
X125224659Y-44281000D01*
X125665343Y-44193343D01*
X125890692Y-44100000D01*
X130342157Y-44100000D01*
X130344000Y-44677750D01*
X130439250Y-44773000D01*
X130998000Y-44773000D01*
X130998000Y-43814250D01*
X130902750Y-43719000D01*
X130725000Y-43717157D01*
X130650311Y-43724513D01*
X130578492Y-43746299D01*
X130512304Y-43781678D01*
X130454289Y-43829289D01*
X130406678Y-43887304D01*
X130371299Y-43953492D01*
X130349513Y-44025311D01*
X130342157Y-44100000D01*
X125890692Y-44100000D01*
X126080459Y-44021396D01*
X126454053Y-43771769D01*
X126771769Y-43454053D01*
X127021396Y-43080459D01*
X127142157Y-42788917D01*
X127142157Y-42975000D01*
X127159601Y-43152111D01*
X127211262Y-43322416D01*
X127295156Y-43479371D01*
X127408058Y-43616942D01*
X127545629Y-43729844D01*
X127702584Y-43813738D01*
X127872889Y-43865399D01*
X128050000Y-43882843D01*
X129100000Y-43882843D01*
X129277111Y-43865399D01*
X129447416Y-43813738D01*
X129604371Y-43729844D01*
X129741942Y-43616942D01*
X129854844Y-43479371D01*
X129938738Y-43322416D01*
X129990399Y-43152111D01*
X130007843Y-42975000D01*
X130007843Y-41025000D01*
X129990399Y-40847889D01*
X129938738Y-40677584D01*
X129854844Y-40520629D01*
X129760770Y-40406000D01*
X136239230Y-40406000D01*
X136145156Y-40520629D01*
G37*
G04 #@! TD.AperFunction*
M02*
