G04 #@! TF.GenerationSoftware,KiCad,Pcbnew,(5.1.9)-1*
G04 #@! TF.CreationDate,2021-05-12T21:32:52+02:00*
G04 #@! TF.ProjectId,GPSMux,4750534d-7578-42e6-9b69-6361645f7063,01*
G04 #@! TF.SameCoordinates,Original*
G04 #@! TF.FileFunction,Legend,Top*
G04 #@! TF.FilePolarity,Positive*
%FSLAX46Y46*%
G04 Gerber Fmt 4.6, Leading zero omitted, Abs format (unit mm)*
G04 Created by KiCad (PCBNEW (5.1.9)-1) date 2021-05-12 21:32:52*
%MOMM*%
%LPD*%
G01*
G04 APERTURE LIST*
%ADD10C,0.250000*%
%ADD11C,0.150000*%
%ADD12C,0.120000*%
%ADD13C,0.100000*%
G04 APERTURE END LIST*
D10*
X123433333Y-52252380D02*
X123433333Y-51252380D01*
X123528571Y-51871428D02*
X123814285Y-52252380D01*
X123814285Y-51585714D02*
X123433333Y-51966666D01*
D11*
X141250000Y-58476190D02*
X141202380Y-58571428D01*
X141202380Y-58714285D01*
X141250000Y-58857142D01*
X141345238Y-58952380D01*
X141440476Y-59000000D01*
X141630952Y-59047619D01*
X141773809Y-59047619D01*
X141964285Y-59000000D01*
X142059523Y-58952380D01*
X142154761Y-58857142D01*
X142202380Y-58714285D01*
X142202380Y-58619047D01*
X142154761Y-58476190D01*
X142107142Y-58428571D01*
X141773809Y-58428571D01*
X141773809Y-58619047D01*
X142202380Y-58000000D02*
X141202380Y-58000000D01*
X141202380Y-57619047D01*
X141250000Y-57523809D01*
X141297619Y-57476190D01*
X141392857Y-57428571D01*
X141535714Y-57428571D01*
X141630952Y-57476190D01*
X141678571Y-57523809D01*
X141726190Y-57619047D01*
X141726190Y-58000000D01*
X142154761Y-57047619D02*
X142202380Y-56904761D01*
X142202380Y-56666666D01*
X142154761Y-56571428D01*
X142107142Y-56523809D01*
X142011904Y-56476190D01*
X141916666Y-56476190D01*
X141821428Y-56523809D01*
X141773809Y-56571428D01*
X141726190Y-56666666D01*
X141678571Y-56857142D01*
X141630952Y-56952380D01*
X141583333Y-57000000D01*
X141488095Y-57047619D01*
X141392857Y-57047619D01*
X141297619Y-57000000D01*
X141250000Y-56952380D01*
X141202380Y-56857142D01*
X141202380Y-56619047D01*
X141250000Y-56476190D01*
X142202380Y-56047619D02*
X141202380Y-56047619D01*
X141916666Y-55714285D01*
X141202380Y-55380952D01*
X142202380Y-55380952D01*
X141535714Y-54476190D02*
X142202380Y-54476190D01*
X141535714Y-54904761D02*
X142059523Y-54904761D01*
X142154761Y-54857142D01*
X142202380Y-54761904D01*
X142202380Y-54619047D01*
X142154761Y-54523809D01*
X142107142Y-54476190D01*
X142202380Y-54095238D02*
X141535714Y-53571428D01*
X141535714Y-54095238D02*
X142202380Y-53571428D01*
X142202380Y-51857142D02*
X141726190Y-52190476D01*
X142202380Y-52428571D02*
X141202380Y-52428571D01*
X141202380Y-52047619D01*
X141250000Y-51952380D01*
X141297619Y-51904761D01*
X141392857Y-51857142D01*
X141535714Y-51857142D01*
X141630952Y-51904761D01*
X141678571Y-51952380D01*
X141726190Y-52047619D01*
X141726190Y-52428571D01*
X141678571Y-51428571D02*
X141678571Y-51095238D01*
X142202380Y-50952380D02*
X142202380Y-51428571D01*
X141202380Y-51428571D01*
X141202380Y-50952380D01*
X141202380Y-50666666D02*
X142202380Y-50333333D01*
X141202380Y-50000000D01*
X142107142Y-49666666D02*
X142154761Y-49619047D01*
X142202380Y-49666666D01*
X142154761Y-49714285D01*
X142107142Y-49666666D01*
X142202380Y-49666666D01*
X141583333Y-49666666D02*
X141630952Y-49619047D01*
X141678571Y-49666666D01*
X141630952Y-49714285D01*
X141583333Y-49666666D01*
X141678571Y-49666666D01*
X141202380Y-48238095D02*
X141202380Y-48142857D01*
X141250000Y-48047619D01*
X141297619Y-48000000D01*
X141392857Y-47952380D01*
X141583333Y-47904761D01*
X141821428Y-47904761D01*
X142011904Y-47952380D01*
X142107142Y-48000000D01*
X142154761Y-48047619D01*
X142202380Y-48142857D01*
X142202380Y-48238095D01*
X142154761Y-48333333D01*
X142107142Y-48380952D01*
X142011904Y-48428571D01*
X141821428Y-48476190D01*
X141583333Y-48476190D01*
X141392857Y-48428571D01*
X141297619Y-48380952D01*
X141250000Y-48333333D01*
X141202380Y-48238095D01*
X142202380Y-46952380D02*
X142202380Y-47523809D01*
X142202380Y-47238095D02*
X141202380Y-47238095D01*
X141345238Y-47333333D01*
X141440476Y-47428571D01*
X141488095Y-47523809D01*
D12*
X124800000Y-44400000D02*
X123000000Y-44400000D01*
X124800000Y-45600000D02*
X124800000Y-44400000D01*
X123000000Y-45600000D02*
X124800000Y-45600000D01*
X138480000Y-45900000D02*
X139180000Y-45900000D01*
X139180000Y-47100000D02*
X138480000Y-47100000D01*
X132000000Y-47860000D02*
X129765000Y-47860000D01*
X129765000Y-47860000D02*
X129765000Y-58140000D01*
X129765000Y-58140000D02*
X136235000Y-58140000D01*
X136235000Y-58140000D02*
X136235000Y-47860000D01*
X136235000Y-47860000D02*
X134000000Y-47860000D01*
X134000000Y-47860000D02*
G75*
G02*
X132000000Y-47860000I-1000000J0D01*
G01*
X124450000Y-52430000D02*
X125550000Y-52430000D01*
X125550000Y-52430000D02*
X125550000Y-49830000D01*
X124450000Y-52430000D02*
X124450000Y-49830000D01*
D13*
X129750000Y-61750000D02*
X136250000Y-61750000D01*
X136250000Y-61750000D02*
X136250000Y-66000000D01*
X136250000Y-66000000D02*
X129750000Y-66000000D01*
X129750000Y-66000000D02*
X129750000Y-61750000D01*
X130500000Y-61500000D02*
X130500000Y-60750000D01*
X130500000Y-61500000D02*
X129750000Y-61500000D01*
X130500000Y-60750000D02*
X129750000Y-61500000D01*
X136250000Y-44250000D02*
X129750000Y-44250000D01*
X129750000Y-44250000D02*
X129750000Y-40000000D01*
X129750000Y-40000000D02*
X136250000Y-40000000D01*
X136250000Y-40000000D02*
X136250000Y-44250000D01*
X135500000Y-44500000D02*
X135500000Y-45250000D01*
X135500000Y-44500000D02*
X136250000Y-44500000D01*
X135500000Y-45250000D02*
X136250000Y-44500000D01*
D11*
X138663333Y-45357142D02*
X138615714Y-45404761D01*
X138472857Y-45452380D01*
X138377619Y-45452380D01*
X138234761Y-45404761D01*
X138139523Y-45309523D01*
X138091904Y-45214285D01*
X138044285Y-45023809D01*
X138044285Y-44880952D01*
X138091904Y-44690476D01*
X138139523Y-44595238D01*
X138234761Y-44500000D01*
X138377619Y-44452380D01*
X138472857Y-44452380D01*
X138615714Y-44500000D01*
X138663333Y-44547619D01*
X139615714Y-45452380D02*
X139044285Y-45452380D01*
X139330000Y-45452380D02*
X139330000Y-44452380D01*
X139234761Y-44595238D01*
X139139523Y-44690476D01*
X139044285Y-44738095D01*
X132238095Y-46312380D02*
X132238095Y-47121904D01*
X132285714Y-47217142D01*
X132333333Y-47264761D01*
X132428571Y-47312380D01*
X132619047Y-47312380D01*
X132714285Y-47264761D01*
X132761904Y-47217142D01*
X132809523Y-47121904D01*
X132809523Y-46312380D01*
X133809523Y-47312380D02*
X133238095Y-47312380D01*
X133523809Y-47312380D02*
X133523809Y-46312380D01*
X133428571Y-46455238D01*
X133333333Y-46550476D01*
X133238095Y-46598095D01*
X124261904Y-47382380D02*
X124261904Y-46382380D01*
X124500000Y-46382380D01*
X124642857Y-46430000D01*
X124738095Y-46525238D01*
X124785714Y-46620476D01*
X124833333Y-46810952D01*
X124833333Y-46953809D01*
X124785714Y-47144285D01*
X124738095Y-47239523D01*
X124642857Y-47334761D01*
X124500000Y-47382380D01*
X124261904Y-47382380D01*
X125785714Y-47382380D02*
X125214285Y-47382380D01*
X125500000Y-47382380D02*
X125500000Y-46382380D01*
X125404761Y-46525238D01*
X125309523Y-46620476D01*
X125214285Y-46668095D01*
X128011904Y-61452380D02*
X128011904Y-60452380D01*
X128392857Y-60452380D01*
X128488095Y-60500000D01*
X128535714Y-60547619D01*
X128583333Y-60642857D01*
X128583333Y-60785714D01*
X128535714Y-60880952D01*
X128488095Y-60928571D01*
X128392857Y-60976190D01*
X128011904Y-60976190D01*
X129535714Y-61452380D02*
X128964285Y-61452380D01*
X129250000Y-61452380D02*
X129250000Y-60452380D01*
X129154761Y-60595238D01*
X129059523Y-60690476D01*
X128964285Y-60738095D01*
X128261904Y-45452380D02*
X128261904Y-44452380D01*
X128642857Y-44452380D01*
X128738095Y-44500000D01*
X128785714Y-44547619D01*
X128833333Y-44642857D01*
X128833333Y-44785714D01*
X128785714Y-44880952D01*
X128738095Y-44928571D01*
X128642857Y-44976190D01*
X128261904Y-44976190D01*
X129166666Y-44452380D02*
X129785714Y-44452380D01*
X129452380Y-44833333D01*
X129595238Y-44833333D01*
X129690476Y-44880952D01*
X129738095Y-44928571D01*
X129785714Y-45023809D01*
X129785714Y-45261904D01*
X129738095Y-45357142D01*
X129690476Y-45404761D01*
X129595238Y-45452380D01*
X129309523Y-45452380D01*
X129214285Y-45404761D01*
X129166666Y-45357142D01*
M02*
