G04 #@! TF.GenerationSoftware,KiCad,Pcbnew,(5.1.9)-1*
G04 #@! TF.CreationDate,2021-05-12T15:35:24+02:00*
G04 #@! TF.ProjectId,GPSMux,4750534d-7578-42e6-9b69-6361645f7063,01*
G04 #@! TF.SameCoordinates,Original*
G04 #@! TF.FileFunction,Legend,Bot*
G04 #@! TF.FilePolarity,Positive*
%FSLAX46Y46*%
G04 Gerber Fmt 4.6, Leading zero omitted, Abs format (unit mm)*
G04 Created by KiCad (PCBNEW (5.1.9)-1) date 2021-05-12 15:35:24*
%MOMM*%
%LPD*%
G01*
G04 APERTURE LIST*
%ADD10C,0.120000*%
%ADD11C,0.100000*%
%ADD12C,0.150000*%
G04 APERTURE END LIST*
D10*
X124800000Y-44400000D02*
X123000000Y-44400000D01*
X124800000Y-45600000D02*
X124800000Y-44400000D01*
X123000000Y-45600000D02*
X124800000Y-45600000D01*
X131775000Y-46470000D02*
X130775000Y-46470000D01*
X130775000Y-47830000D02*
X131775000Y-47830000D01*
X135000000Y-55500000D02*
X135000000Y-51500000D01*
X131000000Y-55500000D02*
X135000000Y-55500000D01*
X131000000Y-50500000D02*
X131000000Y-55500000D01*
X134000000Y-50500000D02*
X131000000Y-50500000D01*
X135000000Y-51500000D02*
X134000000Y-50500000D01*
X135350000Y-48900000D02*
X134650000Y-48900000D01*
X134650000Y-50100000D02*
X135350000Y-50100000D01*
X134650000Y-57100000D02*
X135350000Y-57100000D01*
X135350000Y-55900000D02*
X134650000Y-55900000D01*
X135350000Y-57400000D02*
X134650000Y-57400000D01*
X134650000Y-58600000D02*
X135350000Y-58600000D01*
X130650000Y-50100000D02*
X131350000Y-50100000D01*
X131350000Y-48900000D02*
X130650000Y-48900000D01*
X130650000Y-57100000D02*
X131350000Y-57100000D01*
X131350000Y-55900000D02*
X130650000Y-55900000D01*
X125680000Y-51130000D02*
X125680000Y-50130000D01*
X124320000Y-50130000D02*
X124320000Y-51130000D01*
D11*
X130250000Y-66000000D02*
X130250000Y-61750000D01*
X130250000Y-61750000D02*
X135750000Y-61750000D01*
X135750000Y-61750000D02*
X135750000Y-66000000D01*
X135750000Y-66000000D02*
X130250000Y-66000000D01*
X135000000Y-61500000D02*
X135000000Y-60750000D01*
X135000000Y-60750000D02*
X135750000Y-61500000D01*
X135750000Y-61500000D02*
X135000000Y-61500000D01*
D10*
X140070000Y-55210000D02*
X140070000Y-56210000D01*
X141430000Y-56210000D02*
X141430000Y-55210000D01*
D11*
X130500000Y-45250000D02*
X129750000Y-44500000D01*
X130500000Y-44500000D02*
X129750000Y-44500000D01*
X130500000Y-44500000D02*
X130500000Y-45250000D01*
X129750000Y-40000000D02*
X129750000Y-44250000D01*
X136250000Y-40000000D02*
X129750000Y-40000000D01*
X136250000Y-44250000D02*
X136250000Y-40000000D01*
X129750000Y-44250000D02*
X136250000Y-44250000D01*
D12*
X128691666Y-47602380D02*
X129025000Y-47126190D01*
X129263095Y-47602380D02*
X129263095Y-46602380D01*
X128882142Y-46602380D01*
X128786904Y-46650000D01*
X128739285Y-46697619D01*
X128691666Y-46792857D01*
X128691666Y-46935714D01*
X128739285Y-47030952D01*
X128786904Y-47078571D01*
X128882142Y-47126190D01*
X129263095Y-47126190D01*
X128358333Y-46602380D02*
X127739285Y-46602380D01*
X128072619Y-46983333D01*
X127929761Y-46983333D01*
X127834523Y-47030952D01*
X127786904Y-47078571D01*
X127739285Y-47173809D01*
X127739285Y-47411904D01*
X127786904Y-47507142D01*
X127834523Y-47554761D01*
X127929761Y-47602380D01*
X128215476Y-47602380D01*
X128310714Y-47554761D01*
X128358333Y-47507142D01*
X133553128Y-48001685D02*
X133553128Y-48608828D01*
X133517414Y-48680257D01*
X133481700Y-48715971D01*
X133410271Y-48751685D01*
X133267414Y-48751685D01*
X133195985Y-48715971D01*
X133160271Y-48680257D01*
X133124557Y-48608828D01*
X133124557Y-48001685D01*
X132803128Y-48073114D02*
X132767414Y-48037400D01*
X132695985Y-48001685D01*
X132517414Y-48001685D01*
X132445985Y-48037400D01*
X132410271Y-48073114D01*
X132374557Y-48144542D01*
X132374557Y-48215971D01*
X132410271Y-48323114D01*
X132838842Y-48751685D01*
X132374557Y-48751685D01*
X135113300Y-48692957D02*
X135149014Y-48728671D01*
X135256157Y-48764385D01*
X135327585Y-48764385D01*
X135434728Y-48728671D01*
X135506157Y-48657242D01*
X135541871Y-48585814D01*
X135577585Y-48442957D01*
X135577585Y-48335814D01*
X135541871Y-48192957D01*
X135506157Y-48121528D01*
X135434728Y-48050100D01*
X135327585Y-48014385D01*
X135256157Y-48014385D01*
X135149014Y-48050100D01*
X135113300Y-48085814D01*
X134827585Y-48085814D02*
X134791871Y-48050100D01*
X134720442Y-48014385D01*
X134541871Y-48014385D01*
X134470442Y-48050100D01*
X134434728Y-48085814D01*
X134399014Y-48157242D01*
X134399014Y-48228671D01*
X134434728Y-48335814D01*
X134863300Y-48764385D01*
X134399014Y-48764385D01*
X133125000Y-56767857D02*
X133160714Y-56803571D01*
X133267857Y-56839285D01*
X133339285Y-56839285D01*
X133446428Y-56803571D01*
X133517857Y-56732142D01*
X133553571Y-56660714D01*
X133589285Y-56517857D01*
X133589285Y-56410714D01*
X133553571Y-56267857D01*
X133517857Y-56196428D01*
X133446428Y-56125000D01*
X133339285Y-56089285D01*
X133267857Y-56089285D01*
X133160714Y-56125000D01*
X133125000Y-56160714D01*
X132875000Y-56089285D02*
X132410714Y-56089285D01*
X132660714Y-56375000D01*
X132553571Y-56375000D01*
X132482142Y-56410714D01*
X132446428Y-56446428D01*
X132410714Y-56517857D01*
X132410714Y-56696428D01*
X132446428Y-56767857D01*
X132482142Y-56803571D01*
X132553571Y-56839285D01*
X132767857Y-56839285D01*
X132839285Y-56803571D01*
X132875000Y-56767857D01*
X135125000Y-59767857D02*
X135160714Y-59803571D01*
X135267857Y-59839285D01*
X135339285Y-59839285D01*
X135446428Y-59803571D01*
X135517857Y-59732142D01*
X135553571Y-59660714D01*
X135589285Y-59517857D01*
X135589285Y-59410714D01*
X135553571Y-59267857D01*
X135517857Y-59196428D01*
X135446428Y-59125000D01*
X135339285Y-59089285D01*
X135267857Y-59089285D01*
X135160714Y-59125000D01*
X135125000Y-59160714D01*
X134482142Y-59339285D02*
X134482142Y-59839285D01*
X134660714Y-59053571D02*
X134839285Y-59589285D01*
X134375000Y-59589285D01*
X131125000Y-48680257D02*
X131160714Y-48715971D01*
X131267857Y-48751685D01*
X131339285Y-48751685D01*
X131446428Y-48715971D01*
X131517857Y-48644542D01*
X131553571Y-48573114D01*
X131589285Y-48430257D01*
X131589285Y-48323114D01*
X131553571Y-48180257D01*
X131517857Y-48108828D01*
X131446428Y-48037400D01*
X131339285Y-48001685D01*
X131267857Y-48001685D01*
X131160714Y-48037400D01*
X131125000Y-48073114D01*
X130446428Y-48001685D02*
X130803571Y-48001685D01*
X130839285Y-48358828D01*
X130803571Y-48323114D01*
X130732142Y-48287400D01*
X130553571Y-48287400D01*
X130482142Y-48323114D01*
X130446428Y-48358828D01*
X130410714Y-48430257D01*
X130410714Y-48608828D01*
X130446428Y-48680257D01*
X130482142Y-48715971D01*
X130553571Y-48751685D01*
X130732142Y-48751685D01*
X130803571Y-48715971D01*
X130839285Y-48680257D01*
X131166666Y-58357142D02*
X131214285Y-58404761D01*
X131357142Y-58452380D01*
X131452380Y-58452380D01*
X131595238Y-58404761D01*
X131690476Y-58309523D01*
X131738095Y-58214285D01*
X131785714Y-58023809D01*
X131785714Y-57880952D01*
X131738095Y-57690476D01*
X131690476Y-57595238D01*
X131595238Y-57500000D01*
X131452380Y-57452380D01*
X131357142Y-57452380D01*
X131214285Y-57500000D01*
X131166666Y-57547619D01*
X130309523Y-57452380D02*
X130500000Y-57452380D01*
X130595238Y-57500000D01*
X130642857Y-57547619D01*
X130738095Y-57690476D01*
X130785714Y-57880952D01*
X130785714Y-58261904D01*
X130738095Y-58357142D01*
X130690476Y-58404761D01*
X130595238Y-58452380D01*
X130404761Y-58452380D01*
X130309523Y-58404761D01*
X130261904Y-58357142D01*
X130214285Y-58261904D01*
X130214285Y-58023809D01*
X130261904Y-57928571D01*
X130309523Y-57880952D01*
X130404761Y-57833333D01*
X130595238Y-57833333D01*
X130690476Y-57880952D01*
X130738095Y-57928571D01*
X130785714Y-58023809D01*
X125166666Y-47082380D02*
X125500000Y-46606190D01*
X125738095Y-47082380D02*
X125738095Y-46082380D01*
X125357142Y-46082380D01*
X125261904Y-46130000D01*
X125214285Y-46177619D01*
X125166666Y-46272857D01*
X125166666Y-46415714D01*
X125214285Y-46510952D01*
X125261904Y-46558571D01*
X125357142Y-46606190D01*
X125738095Y-46606190D01*
X124214285Y-47082380D02*
X124785714Y-47082380D01*
X124500000Y-47082380D02*
X124500000Y-46082380D01*
X124595238Y-46225238D01*
X124690476Y-46320476D01*
X124785714Y-46368095D01*
X137488095Y-61452380D02*
X137488095Y-60452380D01*
X137107142Y-60452380D01*
X137011904Y-60500000D01*
X136964285Y-60547619D01*
X136916666Y-60642857D01*
X136916666Y-60785714D01*
X136964285Y-60880952D01*
X137011904Y-60928571D01*
X137107142Y-60976190D01*
X137488095Y-60976190D01*
X136059523Y-60785714D02*
X136059523Y-61452380D01*
X136297619Y-60404761D02*
X136535714Y-61119047D01*
X135916666Y-61119047D01*
X140916666Y-53412380D02*
X141250000Y-52936190D01*
X141488095Y-53412380D02*
X141488095Y-52412380D01*
X141107142Y-52412380D01*
X141011904Y-52460000D01*
X140964285Y-52507619D01*
X140916666Y-52602857D01*
X140916666Y-52745714D01*
X140964285Y-52840952D01*
X141011904Y-52888571D01*
X141107142Y-52936190D01*
X141488095Y-52936190D01*
X140535714Y-52507619D02*
X140488095Y-52460000D01*
X140392857Y-52412380D01*
X140154761Y-52412380D01*
X140059523Y-52460000D01*
X140011904Y-52507619D01*
X139964285Y-52602857D01*
X139964285Y-52698095D01*
X140011904Y-52840952D01*
X140583333Y-53412380D01*
X139964285Y-53412380D01*
X129288095Y-45352380D02*
X129288095Y-44352380D01*
X128907142Y-44352380D01*
X128811904Y-44400000D01*
X128764285Y-44447619D01*
X128716666Y-44542857D01*
X128716666Y-44685714D01*
X128764285Y-44780952D01*
X128811904Y-44828571D01*
X128907142Y-44876190D01*
X129288095Y-44876190D01*
X128335714Y-44447619D02*
X128288095Y-44400000D01*
X128192857Y-44352380D01*
X127954761Y-44352380D01*
X127859523Y-44400000D01*
X127811904Y-44447619D01*
X127764285Y-44542857D01*
X127764285Y-44638095D01*
X127811904Y-44780952D01*
X128383333Y-45352380D01*
X127764285Y-45352380D01*
M02*
