M48
; DRILL file {KiCad (5.1.9)-1} date 05/12/21 15:35:26
; FORMAT={-:-/ absolute / inch / decimal}
; #@! TF.CreationDate,2021-05-12T15:35:26+02:00
; #@! TF.GenerationSoftware,Kicad,Pcbnew,(5.1.9)-1
; #@! TF.FileFunction,Plated,1,2,PTH
FMAT,2
INCH
T1C0.0157
T2C0.0315
T3C0.0866
%
G90
G05
T1
X4.9213Y-1.8898
X4.9213Y-2.1063
X5.1569Y-2.3553
X5.2116Y-1.7126
X5.2608Y-1.6663
X5.3445Y-2.2835
X5.3494Y-1.7992
X5.5315Y-1.8307
T2
X5.0362Y-1.9366
X5.0362Y-2.0366
X5.0362Y-2.1366
X5.0362Y-2.2366
X5.4362Y-1.9366
X5.4362Y-2.0366
X5.4362Y-2.1366
X5.4362Y-2.2366
T3
X4.9213Y-1.6535
X4.9213Y-2.5197
X5.5512Y-1.6535
X5.5512Y-2.5197
T0
M30
