G04 #@! TF.GenerationSoftware,KiCad,Pcbnew,(5.1.9)-1*
G04 #@! TF.CreationDate,2021-05-12T15:35:24+02:00*
G04 #@! TF.ProjectId,GPSMux,4750534d-7578-42e6-9b69-6361645f7063,01*
G04 #@! TF.SameCoordinates,Original*
G04 #@! TF.FileFunction,Paste,Bot*
G04 #@! TF.FilePolarity,Positive*
%FSLAX46Y46*%
G04 Gerber Fmt 4.6, Leading zero omitted, Abs format (unit mm)*
G04 Created by KiCad (PCBNEW (5.1.9)-1) date 2021-05-12 15:35:24*
%MOMM*%
%LPD*%
G01*
G04 APERTURE LIST*
%ADD10R,1.200000X0.900000*%
%ADD11R,1.000000X0.400000*%
%ADD12R,0.800000X0.750000*%
%ADD13R,0.900000X1.200000*%
%ADD14R,0.800000X1.600000*%
G04 APERTURE END LIST*
D10*
X132375000Y-47150000D03*
X130175000Y-47150000D03*
D11*
X130000000Y-50760000D03*
X136000000Y-50760000D03*
X130000000Y-51400000D03*
X136000000Y-51400000D03*
X130000000Y-52040000D03*
X136000000Y-52040000D03*
X130000000Y-52680000D03*
X136000000Y-52680000D03*
X130000000Y-53320000D03*
X136000000Y-53320000D03*
X130000000Y-53960000D03*
X136000000Y-53960000D03*
X130000000Y-54600000D03*
X136000000Y-54600000D03*
X130000000Y-55240000D03*
X136000000Y-55240000D03*
D12*
X134250000Y-49500000D03*
X135750000Y-49500000D03*
X135750000Y-56500000D03*
X134250000Y-56500000D03*
X134250000Y-58000000D03*
X135750000Y-58000000D03*
X131750000Y-49500000D03*
X130250000Y-49500000D03*
X131750000Y-56500000D03*
X130250000Y-56500000D03*
D13*
X125000000Y-51730000D03*
X125000000Y-49530000D03*
D14*
X131750000Y-61100000D03*
X133000000Y-61100000D03*
G36*
G01*
X133850000Y-61700000D02*
X133850000Y-60500000D01*
G75*
G02*
X134050000Y-60300000I200000J0D01*
G01*
X134450000Y-60300000D01*
G75*
G02*
X134650000Y-60500000I0J-200000D01*
G01*
X134650000Y-61700000D01*
G75*
G02*
X134450000Y-61900000I-200000J0D01*
G01*
X134050000Y-61900000D01*
G75*
G02*
X133850000Y-61700000I0J200000D01*
G01*
G37*
D13*
X140750000Y-54610000D03*
X140750000Y-56810000D03*
M02*
