G04 #@! TF.GenerationSoftware,KiCad,Pcbnew,(5.1.9)-1*
G04 #@! TF.CreationDate,2021-05-12T21:32:52+02:00*
G04 #@! TF.ProjectId,GPSMux,4750534d-7578-42e6-9b69-6361645f7063,01*
G04 #@! TF.SameCoordinates,Original*
G04 #@! TF.FileFunction,Soldermask,Top*
G04 #@! TF.FilePolarity,Negative*
%FSLAX46Y46*%
G04 Gerber Fmt 4.6, Leading zero omitted, Abs format (unit mm)*
G04 Created by KiCad (PCBNEW (5.1.9)-1) date 2021-05-12 21:32:52*
%MOMM*%
%LPD*%
G01*
G04 APERTURE LIST*
%ADD10C,3.902000*%
%ADD11O,1.702000X1.702000*%
%ADD12C,0.100000*%
G04 APERTURE END LIST*
D10*
X125000000Y-42000000D03*
X141000000Y-42000000D03*
X141000000Y-64000000D03*
X125000000Y-64000000D03*
G36*
G01*
X139129000Y-46875000D02*
X139129000Y-46125000D01*
G75*
G02*
X139180000Y-46074000I51000J0D01*
G01*
X139980000Y-46074000D01*
G75*
G02*
X140031000Y-46125000I0J-51000D01*
G01*
X140031000Y-46875000D01*
G75*
G02*
X139980000Y-46926000I-51000J0D01*
G01*
X139180000Y-46926000D01*
G75*
G02*
X139129000Y-46875000I0J51000D01*
G01*
G37*
G36*
G01*
X137629000Y-46875000D02*
X137629000Y-46125000D01*
G75*
G02*
X137680000Y-46074000I51000J0D01*
G01*
X138480000Y-46074000D01*
G75*
G02*
X138531000Y-46125000I0J-51000D01*
G01*
X138531000Y-46875000D01*
G75*
G02*
X138480000Y-46926000I-51000J0D01*
G01*
X137680000Y-46926000D01*
G75*
G02*
X137629000Y-46875000I0J51000D01*
G01*
G37*
D11*
X138080000Y-49190000D03*
X127920000Y-56810000D03*
X138080000Y-51730000D03*
X127920000Y-54270000D03*
X138080000Y-54270000D03*
X127920000Y-51730000D03*
X138080000Y-56810000D03*
G36*
G01*
X127069000Y-49990000D02*
X127069000Y-48390000D01*
G75*
G02*
X127120000Y-48339000I51000J0D01*
G01*
X128720000Y-48339000D01*
G75*
G02*
X128771000Y-48390000I0J-51000D01*
G01*
X128771000Y-49990000D01*
G75*
G02*
X128720000Y-50041000I-51000J0D01*
G01*
X127120000Y-50041000D01*
G75*
G02*
X127069000Y-49990000I0J51000D01*
G01*
G37*
G36*
G01*
X125450000Y-50181000D02*
X124550000Y-50181000D01*
G75*
G02*
X124499000Y-50130000I0J51000D01*
G01*
X124499000Y-48930000D01*
G75*
G02*
X124550000Y-48879000I51000J0D01*
G01*
X125450000Y-48879000D01*
G75*
G02*
X125501000Y-48930000I0J-51000D01*
G01*
X125501000Y-50130000D01*
G75*
G02*
X125450000Y-50181000I-51000J0D01*
G01*
G37*
G36*
G01*
X125450000Y-52381000D02*
X124550000Y-52381000D01*
G75*
G02*
X124499000Y-52330000I0J51000D01*
G01*
X124499000Y-51130000D01*
G75*
G02*
X124550000Y-51079000I51000J0D01*
G01*
X125450000Y-51079000D01*
G75*
G02*
X125501000Y-51130000I0J-51000D01*
G01*
X125501000Y-52330000D01*
G75*
G02*
X125450000Y-52381000I-51000J0D01*
G01*
G37*
G36*
G01*
X131576000Y-60474500D02*
X131576000Y-61725500D01*
G75*
G02*
X131350500Y-61951000I-225500J0D01*
G01*
X130899500Y-61951000D01*
G75*
G02*
X130674000Y-61725500I0J225500D01*
G01*
X130674000Y-60474500D01*
G75*
G02*
X130899500Y-60249000I225500J0D01*
G01*
X131350500Y-60249000D01*
G75*
G02*
X131576000Y-60474500I0J-225500D01*
G01*
G37*
G36*
G01*
X132826000Y-60300000D02*
X132826000Y-61900000D01*
G75*
G02*
X132775000Y-61951000I-51000J0D01*
G01*
X131975000Y-61951000D01*
G75*
G02*
X131924000Y-61900000I0J51000D01*
G01*
X131924000Y-60300000D01*
G75*
G02*
X131975000Y-60249000I51000J0D01*
G01*
X132775000Y-60249000D01*
G75*
G02*
X132826000Y-60300000I0J-51000D01*
G01*
G37*
G36*
G01*
X135326000Y-60300000D02*
X135326000Y-61900000D01*
G75*
G02*
X135275000Y-61951000I-51000J0D01*
G01*
X134475000Y-61951000D01*
G75*
G02*
X134424000Y-61900000I0J51000D01*
G01*
X134424000Y-60300000D01*
G75*
G02*
X134475000Y-60249000I51000J0D01*
G01*
X135275000Y-60249000D01*
G75*
G02*
X135326000Y-60300000I0J-51000D01*
G01*
G37*
G36*
G01*
X134076000Y-60300000D02*
X134076000Y-61900000D01*
G75*
G02*
X134025000Y-61951000I-51000J0D01*
G01*
X133225000Y-61951000D01*
G75*
G02*
X133174000Y-61900000I0J51000D01*
G01*
X133174000Y-60300000D01*
G75*
G02*
X133225000Y-60249000I51000J0D01*
G01*
X134025000Y-60249000D01*
G75*
G02*
X134076000Y-60300000I0J-51000D01*
G01*
G37*
G36*
G01*
X129676000Y-62999500D02*
X129676000Y-65000500D01*
G75*
G02*
X129125500Y-65551000I-550500J0D01*
G01*
X128024500Y-65551000D01*
G75*
G02*
X127474000Y-65000500I0J550500D01*
G01*
X127474000Y-62999500D01*
G75*
G02*
X128024500Y-62449000I550500J0D01*
G01*
X129125500Y-62449000D01*
G75*
G02*
X129676000Y-62999500I0J-550500D01*
G01*
G37*
G36*
G01*
X138526000Y-62999500D02*
X138526000Y-65000500D01*
G75*
G02*
X137975500Y-65551000I-550500J0D01*
G01*
X136874500Y-65551000D01*
G75*
G02*
X136324000Y-65000500I0J550500D01*
G01*
X136324000Y-62999500D01*
G75*
G02*
X136874500Y-62449000I550500J0D01*
G01*
X137975500Y-62449000D01*
G75*
G02*
X138526000Y-62999500I0J-550500D01*
G01*
G37*
G36*
G01*
X134424000Y-45525500D02*
X134424000Y-44274500D01*
G75*
G02*
X134649500Y-44049000I225500J0D01*
G01*
X135100500Y-44049000D01*
G75*
G02*
X135326000Y-44274500I0J-225500D01*
G01*
X135326000Y-45525500D01*
G75*
G02*
X135100500Y-45751000I-225500J0D01*
G01*
X134649500Y-45751000D01*
G75*
G02*
X134424000Y-45525500I0J225500D01*
G01*
G37*
G36*
G01*
X133174000Y-45700000D02*
X133174000Y-44100000D01*
G75*
G02*
X133225000Y-44049000I51000J0D01*
G01*
X134025000Y-44049000D01*
G75*
G02*
X134076000Y-44100000I0J-51000D01*
G01*
X134076000Y-45700000D01*
G75*
G02*
X134025000Y-45751000I-51000J0D01*
G01*
X133225000Y-45751000D01*
G75*
G02*
X133174000Y-45700000I0J51000D01*
G01*
G37*
G36*
G01*
X130674000Y-45700000D02*
X130674000Y-44100000D01*
G75*
G02*
X130725000Y-44049000I51000J0D01*
G01*
X131525000Y-44049000D01*
G75*
G02*
X131576000Y-44100000I0J-51000D01*
G01*
X131576000Y-45700000D01*
G75*
G02*
X131525000Y-45751000I-51000J0D01*
G01*
X130725000Y-45751000D01*
G75*
G02*
X130674000Y-45700000I0J51000D01*
G01*
G37*
G36*
G01*
X131924000Y-45700000D02*
X131924000Y-44100000D01*
G75*
G02*
X131975000Y-44049000I51000J0D01*
G01*
X132775000Y-44049000D01*
G75*
G02*
X132826000Y-44100000I0J-51000D01*
G01*
X132826000Y-45700000D01*
G75*
G02*
X132775000Y-45751000I-51000J0D01*
G01*
X131975000Y-45751000D01*
G75*
G02*
X131924000Y-45700000I0J51000D01*
G01*
G37*
G36*
G01*
X136324000Y-43000500D02*
X136324000Y-40999500D01*
G75*
G02*
X136874500Y-40449000I550500J0D01*
G01*
X137975500Y-40449000D01*
G75*
G02*
X138526000Y-40999500I0J-550500D01*
G01*
X138526000Y-43000500D01*
G75*
G02*
X137975500Y-43551000I-550500J0D01*
G01*
X136874500Y-43551000D01*
G75*
G02*
X136324000Y-43000500I0J550500D01*
G01*
G37*
G36*
G01*
X127474000Y-43000500D02*
X127474000Y-40999500D01*
G75*
G02*
X128024500Y-40449000I550500J0D01*
G01*
X129125500Y-40449000D01*
G75*
G02*
X129676000Y-40999500I0J-550500D01*
G01*
X129676000Y-43000500D01*
G75*
G02*
X129125500Y-43551000I-550500J0D01*
G01*
X128024500Y-43551000D01*
G75*
G02*
X127474000Y-43000500I0J550500D01*
G01*
G37*
D12*
G36*
X136325990Y-65000304D02*
G01*
X136336548Y-65107502D01*
X136367761Y-65210398D01*
X136418447Y-65305225D01*
X136486659Y-65388341D01*
X136569775Y-65456553D01*
X136664602Y-65507239D01*
X136767498Y-65538452D01*
X136874696Y-65549010D01*
X136876322Y-65550175D01*
X136876126Y-65552165D01*
X136874500Y-65553000D01*
X136818140Y-65553000D01*
X136817944Y-65552990D01*
X136716720Y-65543020D01*
X136716335Y-65542944D01*
X136624897Y-65515207D01*
X136624535Y-65515057D01*
X136540276Y-65470019D01*
X136539950Y-65469801D01*
X136466090Y-65409187D01*
X136465813Y-65408910D01*
X136405199Y-65335050D01*
X136404981Y-65334724D01*
X136359943Y-65250465D01*
X136359793Y-65250103D01*
X136332056Y-65158665D01*
X136331980Y-65158280D01*
X136322010Y-65057056D01*
X136322000Y-65056860D01*
X136322000Y-65000500D01*
X136323000Y-64998768D01*
X136325000Y-64998768D01*
X136325990Y-65000304D01*
G37*
G36*
X127475990Y-65000304D02*
G01*
X127486548Y-65107502D01*
X127517761Y-65210398D01*
X127568447Y-65305225D01*
X127636659Y-65388341D01*
X127719775Y-65456553D01*
X127814602Y-65507239D01*
X127917498Y-65538452D01*
X128024696Y-65549010D01*
X128026322Y-65550175D01*
X128026126Y-65552165D01*
X128024500Y-65553000D01*
X127968140Y-65553000D01*
X127967944Y-65552990D01*
X127866720Y-65543020D01*
X127866335Y-65542944D01*
X127774897Y-65515207D01*
X127774535Y-65515057D01*
X127690276Y-65470019D01*
X127689950Y-65469801D01*
X127616090Y-65409187D01*
X127615813Y-65408910D01*
X127555199Y-65335050D01*
X127554981Y-65334724D01*
X127509943Y-65250465D01*
X127509793Y-65250103D01*
X127482056Y-65158665D01*
X127481980Y-65158280D01*
X127472010Y-65057056D01*
X127472000Y-65056860D01*
X127472000Y-65000500D01*
X127473000Y-64998768D01*
X127475000Y-64998768D01*
X127475990Y-65000304D01*
G37*
G36*
X138527165Y-64998874D02*
G01*
X138528000Y-65000500D01*
X138528000Y-65056860D01*
X138527990Y-65057056D01*
X138518020Y-65158280D01*
X138517944Y-65158665D01*
X138490207Y-65250103D01*
X138490057Y-65250465D01*
X138445019Y-65334724D01*
X138444801Y-65335050D01*
X138384187Y-65408910D01*
X138383910Y-65409187D01*
X138310050Y-65469801D01*
X138309724Y-65470019D01*
X138225465Y-65515057D01*
X138225103Y-65515207D01*
X138133665Y-65542944D01*
X138133280Y-65543020D01*
X138032056Y-65552990D01*
X138031860Y-65553000D01*
X137975500Y-65553000D01*
X137973768Y-65552000D01*
X137973768Y-65550000D01*
X137975304Y-65549010D01*
X138082502Y-65538452D01*
X138185398Y-65507239D01*
X138280225Y-65456553D01*
X138363341Y-65388341D01*
X138431553Y-65305225D01*
X138482239Y-65210398D01*
X138513452Y-65107502D01*
X138524010Y-65000304D01*
X138525175Y-64998678D01*
X138527165Y-64998874D01*
G37*
G36*
X129677165Y-64998874D02*
G01*
X129678000Y-65000500D01*
X129678000Y-65056860D01*
X129677990Y-65057056D01*
X129668020Y-65158280D01*
X129667944Y-65158665D01*
X129640207Y-65250103D01*
X129640057Y-65250465D01*
X129595019Y-65334724D01*
X129594801Y-65335050D01*
X129534187Y-65408910D01*
X129533910Y-65409187D01*
X129460050Y-65469801D01*
X129459724Y-65470019D01*
X129375465Y-65515057D01*
X129375103Y-65515207D01*
X129283665Y-65542944D01*
X129283280Y-65543020D01*
X129182056Y-65552990D01*
X129181860Y-65553000D01*
X129125500Y-65553000D01*
X129123768Y-65552000D01*
X129123768Y-65550000D01*
X129125304Y-65549010D01*
X129232502Y-65538452D01*
X129335398Y-65507239D01*
X129430225Y-65456553D01*
X129513341Y-65388341D01*
X129581553Y-65305225D01*
X129632239Y-65210398D01*
X129663452Y-65107502D01*
X129674010Y-65000304D01*
X129675175Y-64998678D01*
X129677165Y-64998874D01*
G37*
G36*
X136876232Y-62448000D02*
G01*
X136876232Y-62450000D01*
X136874696Y-62450990D01*
X136767498Y-62461548D01*
X136664602Y-62492761D01*
X136569775Y-62543447D01*
X136486659Y-62611659D01*
X136418447Y-62694775D01*
X136367761Y-62789602D01*
X136336548Y-62892498D01*
X136325990Y-62999696D01*
X136324825Y-63001322D01*
X136322835Y-63001126D01*
X136322000Y-62999500D01*
X136322000Y-62943140D01*
X136322010Y-62942944D01*
X136331980Y-62841720D01*
X136332056Y-62841335D01*
X136359793Y-62749897D01*
X136359943Y-62749535D01*
X136404981Y-62665276D01*
X136405199Y-62664950D01*
X136465813Y-62591090D01*
X136466090Y-62590813D01*
X136539950Y-62530199D01*
X136540276Y-62529981D01*
X136624535Y-62484943D01*
X136624897Y-62484793D01*
X136716335Y-62457056D01*
X136716720Y-62456980D01*
X136817944Y-62447010D01*
X136818140Y-62447000D01*
X136874500Y-62447000D01*
X136876232Y-62448000D01*
G37*
G36*
X128026232Y-62448000D02*
G01*
X128026232Y-62450000D01*
X128024696Y-62450990D01*
X127917498Y-62461548D01*
X127814602Y-62492761D01*
X127719775Y-62543447D01*
X127636659Y-62611659D01*
X127568447Y-62694775D01*
X127517761Y-62789602D01*
X127486548Y-62892498D01*
X127475990Y-62999696D01*
X127474825Y-63001322D01*
X127472835Y-63001126D01*
X127472000Y-62999500D01*
X127472000Y-62943140D01*
X127472010Y-62942944D01*
X127481980Y-62841720D01*
X127482056Y-62841335D01*
X127509793Y-62749897D01*
X127509943Y-62749535D01*
X127554981Y-62665276D01*
X127555199Y-62664950D01*
X127615813Y-62591090D01*
X127616090Y-62590813D01*
X127689950Y-62530199D01*
X127690276Y-62529981D01*
X127774535Y-62484943D01*
X127774897Y-62484793D01*
X127866335Y-62457056D01*
X127866720Y-62456980D01*
X127967944Y-62447010D01*
X127968140Y-62447000D01*
X128024500Y-62447000D01*
X128026232Y-62448000D01*
G37*
G36*
X138032056Y-62447010D02*
G01*
X138133280Y-62456980D01*
X138133665Y-62457056D01*
X138225103Y-62484793D01*
X138225465Y-62484943D01*
X138309724Y-62529981D01*
X138310050Y-62530199D01*
X138383910Y-62590813D01*
X138384187Y-62591090D01*
X138444801Y-62664950D01*
X138445019Y-62665276D01*
X138490057Y-62749535D01*
X138490207Y-62749897D01*
X138517944Y-62841335D01*
X138518020Y-62841720D01*
X138527990Y-62942944D01*
X138528000Y-62943140D01*
X138528000Y-62999500D01*
X138527000Y-63001232D01*
X138525000Y-63001232D01*
X138524010Y-62999696D01*
X138513452Y-62892498D01*
X138482239Y-62789602D01*
X138431553Y-62694775D01*
X138363341Y-62611659D01*
X138280225Y-62543447D01*
X138185398Y-62492761D01*
X138082502Y-62461548D01*
X137975304Y-62450990D01*
X137973678Y-62449825D01*
X137973874Y-62447835D01*
X137975500Y-62447000D01*
X138031860Y-62447000D01*
X138032056Y-62447010D01*
G37*
G36*
X129182056Y-62447010D02*
G01*
X129283280Y-62456980D01*
X129283665Y-62457056D01*
X129375103Y-62484793D01*
X129375465Y-62484943D01*
X129459724Y-62529981D01*
X129460050Y-62530199D01*
X129533910Y-62590813D01*
X129534187Y-62591090D01*
X129594801Y-62664950D01*
X129595019Y-62665276D01*
X129640057Y-62749535D01*
X129640207Y-62749897D01*
X129667944Y-62841335D01*
X129668020Y-62841720D01*
X129677990Y-62942944D01*
X129678000Y-62943140D01*
X129678000Y-62999500D01*
X129677000Y-63001232D01*
X129675000Y-63001232D01*
X129674010Y-62999696D01*
X129663452Y-62892498D01*
X129632239Y-62789602D01*
X129581553Y-62694775D01*
X129513341Y-62611659D01*
X129430225Y-62543447D01*
X129335398Y-62492761D01*
X129232502Y-62461548D01*
X129125304Y-62450990D01*
X129123678Y-62449825D01*
X129123874Y-62447835D01*
X129125500Y-62447000D01*
X129181860Y-62447000D01*
X129182056Y-62447010D01*
G37*
G36*
X138527165Y-42998874D02*
G01*
X138528000Y-43000500D01*
X138528000Y-43056860D01*
X138527990Y-43057056D01*
X138518020Y-43158280D01*
X138517944Y-43158665D01*
X138490207Y-43250103D01*
X138490057Y-43250465D01*
X138445019Y-43334724D01*
X138444801Y-43335050D01*
X138384187Y-43408910D01*
X138383910Y-43409187D01*
X138310050Y-43469801D01*
X138309724Y-43470019D01*
X138225465Y-43515057D01*
X138225103Y-43515207D01*
X138133665Y-43542944D01*
X138133280Y-43543020D01*
X138032056Y-43552990D01*
X138031860Y-43553000D01*
X137975500Y-43553000D01*
X137973768Y-43552000D01*
X137973768Y-43550000D01*
X137975304Y-43549010D01*
X138082502Y-43538452D01*
X138185398Y-43507239D01*
X138280225Y-43456553D01*
X138363341Y-43388341D01*
X138431553Y-43305225D01*
X138482239Y-43210398D01*
X138513452Y-43107502D01*
X138524010Y-43000304D01*
X138525175Y-42998678D01*
X138527165Y-42998874D01*
G37*
G36*
X129677165Y-42998874D02*
G01*
X129678000Y-43000500D01*
X129678000Y-43056860D01*
X129677990Y-43057056D01*
X129668020Y-43158280D01*
X129667944Y-43158665D01*
X129640207Y-43250103D01*
X129640057Y-43250465D01*
X129595019Y-43334724D01*
X129594801Y-43335050D01*
X129534187Y-43408910D01*
X129533910Y-43409187D01*
X129460050Y-43469801D01*
X129459724Y-43470019D01*
X129375465Y-43515057D01*
X129375103Y-43515207D01*
X129283665Y-43542944D01*
X129283280Y-43543020D01*
X129182056Y-43552990D01*
X129181860Y-43553000D01*
X129125500Y-43553000D01*
X129123768Y-43552000D01*
X129123768Y-43550000D01*
X129125304Y-43549010D01*
X129232502Y-43538452D01*
X129335398Y-43507239D01*
X129430225Y-43456553D01*
X129513341Y-43388341D01*
X129581553Y-43305225D01*
X129632239Y-43210398D01*
X129663452Y-43107502D01*
X129674010Y-43000304D01*
X129675175Y-42998678D01*
X129677165Y-42998874D01*
G37*
G36*
X127475990Y-43000304D02*
G01*
X127486548Y-43107502D01*
X127517761Y-43210398D01*
X127568447Y-43305225D01*
X127636659Y-43388341D01*
X127719775Y-43456553D01*
X127814602Y-43507239D01*
X127917498Y-43538452D01*
X128024696Y-43549010D01*
X128026322Y-43550175D01*
X128026126Y-43552165D01*
X128024500Y-43553000D01*
X127968140Y-43553000D01*
X127967944Y-43552990D01*
X127866720Y-43543020D01*
X127866335Y-43542944D01*
X127774897Y-43515207D01*
X127774535Y-43515057D01*
X127690276Y-43470019D01*
X127689950Y-43469801D01*
X127616090Y-43409187D01*
X127615813Y-43408910D01*
X127555199Y-43335050D01*
X127554981Y-43334724D01*
X127509943Y-43250465D01*
X127509793Y-43250103D01*
X127482056Y-43158665D01*
X127481980Y-43158280D01*
X127472010Y-43057056D01*
X127472000Y-43056860D01*
X127472000Y-43000500D01*
X127473000Y-42998768D01*
X127475000Y-42998768D01*
X127475990Y-43000304D01*
G37*
G36*
X136325990Y-43000304D02*
G01*
X136336548Y-43107502D01*
X136367761Y-43210398D01*
X136418447Y-43305225D01*
X136486659Y-43388341D01*
X136569775Y-43456553D01*
X136664602Y-43507239D01*
X136767498Y-43538452D01*
X136874696Y-43549010D01*
X136876322Y-43550175D01*
X136876126Y-43552165D01*
X136874500Y-43553000D01*
X136818140Y-43553000D01*
X136817944Y-43552990D01*
X136716720Y-43543020D01*
X136716335Y-43542944D01*
X136624897Y-43515207D01*
X136624535Y-43515057D01*
X136540276Y-43470019D01*
X136539950Y-43469801D01*
X136466090Y-43409187D01*
X136465813Y-43408910D01*
X136405199Y-43335050D01*
X136404981Y-43334724D01*
X136359943Y-43250465D01*
X136359793Y-43250103D01*
X136332056Y-43158665D01*
X136331980Y-43158280D01*
X136322010Y-43057056D01*
X136322000Y-43056860D01*
X136322000Y-43000500D01*
X136323000Y-42998768D01*
X136325000Y-42998768D01*
X136325990Y-43000304D01*
G37*
G36*
X128026232Y-40448000D02*
G01*
X128026232Y-40450000D01*
X128024696Y-40450990D01*
X127917498Y-40461548D01*
X127814602Y-40492761D01*
X127719775Y-40543447D01*
X127636659Y-40611659D01*
X127568447Y-40694775D01*
X127517761Y-40789602D01*
X127486548Y-40892498D01*
X127475990Y-40999696D01*
X127474825Y-41001322D01*
X127472835Y-41001126D01*
X127472000Y-40999500D01*
X127472000Y-40943140D01*
X127472010Y-40942944D01*
X127481980Y-40841720D01*
X127482056Y-40841335D01*
X127509793Y-40749897D01*
X127509943Y-40749535D01*
X127554981Y-40665276D01*
X127555199Y-40664950D01*
X127615813Y-40591090D01*
X127616090Y-40590813D01*
X127689950Y-40530199D01*
X127690276Y-40529981D01*
X127774535Y-40484943D01*
X127774897Y-40484793D01*
X127866335Y-40457056D01*
X127866720Y-40456980D01*
X127967944Y-40447010D01*
X127968140Y-40447000D01*
X128024500Y-40447000D01*
X128026232Y-40448000D01*
G37*
G36*
X136876232Y-40448000D02*
G01*
X136876232Y-40450000D01*
X136874696Y-40450990D01*
X136767498Y-40461548D01*
X136664602Y-40492761D01*
X136569775Y-40543447D01*
X136486659Y-40611659D01*
X136418447Y-40694775D01*
X136367761Y-40789602D01*
X136336548Y-40892498D01*
X136325990Y-40999696D01*
X136324825Y-41001322D01*
X136322835Y-41001126D01*
X136322000Y-40999500D01*
X136322000Y-40943140D01*
X136322010Y-40942944D01*
X136331980Y-40841720D01*
X136332056Y-40841335D01*
X136359793Y-40749897D01*
X136359943Y-40749535D01*
X136404981Y-40665276D01*
X136405199Y-40664950D01*
X136465813Y-40591090D01*
X136466090Y-40590813D01*
X136539950Y-40530199D01*
X136540276Y-40529981D01*
X136624535Y-40484943D01*
X136624897Y-40484793D01*
X136716335Y-40457056D01*
X136716720Y-40456980D01*
X136817944Y-40447010D01*
X136818140Y-40447000D01*
X136874500Y-40447000D01*
X136876232Y-40448000D01*
G37*
G36*
X129182056Y-40447010D02*
G01*
X129283280Y-40456980D01*
X129283665Y-40457056D01*
X129375103Y-40484793D01*
X129375465Y-40484943D01*
X129459724Y-40529981D01*
X129460050Y-40530199D01*
X129533910Y-40590813D01*
X129534187Y-40591090D01*
X129594801Y-40664950D01*
X129595019Y-40665276D01*
X129640057Y-40749535D01*
X129640207Y-40749897D01*
X129667944Y-40841335D01*
X129668020Y-40841720D01*
X129677990Y-40942944D01*
X129678000Y-40943140D01*
X129678000Y-40999500D01*
X129677000Y-41001232D01*
X129675000Y-41001232D01*
X129674010Y-40999696D01*
X129663452Y-40892498D01*
X129632239Y-40789602D01*
X129581553Y-40694775D01*
X129513341Y-40611659D01*
X129430225Y-40543447D01*
X129335398Y-40492761D01*
X129232502Y-40461548D01*
X129125304Y-40450990D01*
X129123678Y-40449825D01*
X129123874Y-40447835D01*
X129125500Y-40447000D01*
X129181860Y-40447000D01*
X129182056Y-40447010D01*
G37*
G36*
X138032056Y-40447010D02*
G01*
X138133280Y-40456980D01*
X138133665Y-40457056D01*
X138225103Y-40484793D01*
X138225465Y-40484943D01*
X138309724Y-40529981D01*
X138310050Y-40530199D01*
X138383910Y-40590813D01*
X138384187Y-40591090D01*
X138444801Y-40664950D01*
X138445019Y-40665276D01*
X138490057Y-40749535D01*
X138490207Y-40749897D01*
X138517944Y-40841335D01*
X138518020Y-40841720D01*
X138527990Y-40942944D01*
X138528000Y-40943140D01*
X138528000Y-40999500D01*
X138527000Y-41001232D01*
X138525000Y-41001232D01*
X138524010Y-40999696D01*
X138513452Y-40892498D01*
X138482239Y-40789602D01*
X138431553Y-40694775D01*
X138363341Y-40611659D01*
X138280225Y-40543447D01*
X138185398Y-40492761D01*
X138082502Y-40461548D01*
X137975304Y-40450990D01*
X137973678Y-40449825D01*
X137973874Y-40447835D01*
X137975500Y-40447000D01*
X138031860Y-40447000D01*
X138032056Y-40447010D01*
G37*
M02*
